<?xml version="1.0" encoding="UTF-8" standalone="no" ?>
<svg class="icon-move" version="1.1" id="Layer_1" xmlns="http://www.w3.org/2000/svg" xmlns:xlink="http://www.w3.org/1999/xlink" x="0px" y="0px" viewBox="0 0 28 28" style="enable-background:new 0 0 28 28;height: 28px;" xml:space="preserve">
<style type="text/css">
    .st0{fill:#FFFFFF;}
</style>
<title>icon-move</title>
    <g id="Layer_2">
        <g id="Layer_1-2">
            <path class="st0" d="M14,28c-0.6,0-1-0.4-1-1c0-0.3,0.1-0.5,0.3-0.7l3-3c0.4-0.4,1.1-0.3,1.4,0.1c0.3,0.4,0.3,0.9,0,1.3l-3,3
            C14.5,27.9,14.3,28,14,28z"></path>
            <path class="st0" d="M14,28c-0.3,0-0.5-0.1-0.7-0.3l-3-3c-0.4-0.4-0.3-1.1,0.1-1.4c0.4-0.3,0.9-0.3,1.3,0l3,3c0.4,0.4,0.4,1,0,1.4
            C14.5,27.9,14.3,28,14,28z"></path>
            <path class="st0" d="M17,5c-0.3,0-0.5-0.1-0.7-0.3l-3-3C13,1.3,13,0.6,13.5,0.3c0.4-0.3,0.8-0.3,1.2,0l3,3c0.4,0.4,0.4,1,0,1.4
            C17.5,4.9,17.3,5,17,5z"></path>
            <path class="st0" d="M10.9,5c-0.6,0-1-0.4-1-1c0-0.3,0.1-0.5,0.3-0.7l3-3c0.4-0.4,1-0.5,1.4-0.1c0.4,0.4,0.5,1,0.1,1.4
            c0,0-0.1,0.1-0.1,0.1l-3,3C11.4,4.9,11.2,5,10.9,5z"></path>
            <path class="st0" d="M27,15c-0.3,0-0.5-0.1-0.7-0.3l-3-3c-0.4-0.4-0.3-1.1,0.1-1.4c0.4-0.3,0.9-0.3,1.3,0l3,3c0.4,0.4,0.4,1,0,1.4
            C27.5,14.9,27.3,15,27,15z"></path>
            <path class="st0" d="M24,18c-0.6,0-1-0.4-1-1c0-0.3,0.1-0.5,0.3-0.7l3-3c0.4-0.4,1.1-0.3,1.4,0.1c0.3,0.4,0.3,0.9,0,1.3l-3,3
            C24.5,17.9,24.3,18,24,18z"></path>
            <path class="st0" d="M1,15c-0.6,0-1-0.4-1-1c0-0.3,0.1-0.5,0.3-0.7l3-3c0.4-0.4,1.1-0.3,1.4,0.1c0.3,0.4,0.3,0.9,0,1.3l-3,3
            C1.5,14.9,1.3,15,1,15z"></path>
            <path class="st0" d="M4,18c-0.3,0-0.5-0.1-0.7-0.3l-3-3c-0.4-0.4-0.3-1.1,0.1-1.4c0.4-0.3,0.9-0.3,1.3,0l3,3c0.4,0.4,0.4,1,0,1.4
            C4.5,17.9,4.3,18,4,18z"></path>
            <path class="st0" d="M26,15H2c-0.6,0-1-0.4-1-1s0.4-1,1-1h24c0.6,0,1,0.4,1,1S26.6,15,26,15z"></path>
            <path class="st0" d="M14.1,26.9c-0.6,0-1-0.4-1-1v-24c0-0.6,0.4-1,1-1s1,0.4,1,1v24C15.1,26.5,14.6,26.9,14.1,26.9z"></path>
        </g>
    </g>
</svg>