<?xml version="1.0" encoding="utf-8"?>
<!-- Generator: Adobe Illustrator 16.0.4, SVG Export Plug-In . SVG Version: 6.00 Build 0)  -->
<!DOCTYPE svg PUBLIC "-//W3C//DTD SVG 1.1//EN" "http://www.w3.org/Graphics/SVG/1.1/DTD/svg11.dtd">
<svg version="1.1" xmlns="http://www.w3.org/2000/svg" xmlns:xlink="http://www.w3.org/1999/xlink" x="0px" y="0px" width="26px"
	 height="26px" viewBox="0 0 26 26" enable-background="new 0 0 26 26" xml:space="preserve">
<style type="text/css">
			    .st2
			    {
			        fill: #555;
			    }
			</style>
<g id="Icons">
	<g>
		<path  class="st2" d="M13.002,25.998c-3.474,0-6.739-1.352-9.194-3.807s-3.809-5.72-3.807-9.192C0.001,5.83,5.832-0.002,13-0.002
			c7.169,0,13,5.832,13,13.001C26,20.167,20.17,25.998,13.002,25.998z M13,2.018c-6.055,0-10.98,4.927-10.98,10.981
			c0,2.934,1.143,5.69,3.216,7.765c2.074,2.073,4.831,3.216,7.765,3.216h0.002c6.054,0,10.979-4.926,10.979-10.98
			S19.055,2.018,13,2.018z"/>
	</g>
	<path  class="st2" d="M14.428,12.999l4.033-4.032c0.395-0.395,0.395-1.033,0-1.428s-1.033-0.395-1.428,0L13,11.571L8.967,7.539
		c-0.395-0.395-1.033-0.395-1.428,0s-0.395,1.033,0,1.428l4.033,4.032L7.539,17.03c-0.395,0.395-0.395,1.033,0,1.428
		c0.197,0.197,0.456,0.296,0.714,0.296c0.259,0,0.517-0.099,0.714-0.296L13,14.427l4.033,4.031c0.197,0.197,0.455,0.296,0.714,0.296
		c0.258,0,0.517-0.099,0.714-0.296c0.395-0.395,0.395-1.033,0-1.428L14.428,12.999z"/>
</g>
<g id="Grid" display="none">
</g>
</svg>
