<?xml version="1.0" encoding="utf-8"?>
<!-- Generator: Adobe Illustrator 16.0.4, SVG Export Plug-In . SVG Version: 6.00 Build 0)  -->
<!DOCTYPE svg PUBLIC "-//W3C//DTD SVG 1.1//EN" "http://www.w3.org/Graphics/SVG/1.1/DTD/svg11.dtd">
<svg version="1.1" id="Layer_1" xmlns="http://www.w3.org/2000/svg" xmlns:xlink="http://www.w3.org/1999/xlink" x="0px" y="0px"
	 width="404.98px" height="404.98px" viewBox="0 0 404.98 404.98" enable-background="new 0 0 404.98 404.98" xml:space="preserve">
<path fill="#FFFFFF" d="M405.176,74.298c-14.916,6.615-30.943,11.087-47.768,13.096c17.17-10.292,30.359-26.592,36.568-46.011
	c-16.07,9.531-33.869,16.452-52.812,20.181C325.994,45.401,304.379,35.3,280.461,35.3c-45.934,0-83.17,37.236-83.17,83.165
	c0,6.518,0.735,12.866,2.153,18.952c-69.119-3.468-130.399-36.578-171.418-86.896c-7.159,12.284-11.26,26.57-11.26,41.812
	c0,28.853,14.683,54.309,36.998,69.224c-13.632-0.431-26.457-4.172-37.669-10.403c-0.006,0.347-0.008,0.696-0.008,1.045
	c0,40.295,28.667,73.909,66.714,81.551c-6.979,1.898-14.327,2.916-21.911,2.916c-5.359,0-10.569-0.522-15.648-1.491
	c10.584,33.039,41.298,57.086,77.69,57.758c-28.462,22.306-64.323,35.601-103.287,35.601c-6.713,0-13.333-0.396-19.84-1.161
	c36.805,23.597,80.521,37.364,127.486,37.364c152.975,0,236.627-126.727,236.627-236.628c0-3.606-0.084-7.193-0.24-10.758
	C379.926,105.624,394.025,90.978,405.176,74.298z"/>
</svg>
