<?xml version="1.0" encoding="utf-8"?>
<!-- Generator: Adobe Illustrator 16.0.4, SVG Export Plug-In . SVG Version: 6.00 Build 0)  -->
<!DOCTYPE svg PUBLIC "-//W3C//DTD SVG 1.1//EN" "http://www.w3.org/Graphics/SVG/1.1/DTD/svg11.dtd">
<svg version="1.1" xmlns="http://www.w3.org/2000/svg" xmlns:xlink="http://www.w3.org/1999/xlink" x="0px" y="0px" width="20px"
	 height="26px" viewBox="0 0 20 26" enable-background="new 0 0 20 26" xml:space="preserve" fill="#0c2074">
<g id="Icons">
	<g>
		<g>
			<g>
				<path d="M10,26l-0.648-0.546C8.97,25.132,0,17.492,0,9.888C0,4.436,4.486,0,10,0c5.514,0,10,4.436,10,9.888
					c0,7.604-8.969,15.245-9.351,15.566L10,26z M10,1.977c-4.412,0-8,3.549-8,7.911c0,5.605,5.989,11.62,8,13.481
					c2.011-1.863,8-7.885,8-13.481C18,5.525,14.412,1.977,10,1.977z"/>
			</g>
			<g>
				<path d="M10,13.833c-2.206,0-4-1.773-4-3.952s1.794-3.952,4-3.952s4,1.773,4,3.952S12.206,13.833,10,13.833z M10,7.905
					c-1.103,0-2,0.886-2,1.976s0.897,1.976,2,1.976s2-0.886,2-1.976S11.103,7.905,10,7.905z"/>
			</g>
		</g>
	</g>
	<g>
		<g>
			<path d="M58.281,23.719c-6.065,0-11-4.935-11-11s4.935-11,11-11s11,4.935,11,11S64.347,23.719,58.281,23.719z M58.281,3.719
				c-4.962,0-9,4.038-9,9s4.038,9,9,9s9-4.038,9-9S63.244,3.719,58.281,3.719z"/>
		</g>
		<g>
			<path d="M58.281,17.719c-0.552,0-1-0.448-1-1v-4c0-0.552,0.448-1,1-1s1,0.448,1,1v4C59.281,17.271,58.833,17.719,58.281,17.719z"
				/>
		</g>
		<g>
			<circle cx="58.312" cy="8.719" r="1"/>
		</g>
	</g>
	<g>
		<g>
			<path d="M106.281,23.719c-6.065,0-11-4.935-11-11s4.935-11,11-11s11,4.935,11,11S112.347,23.719,106.281,23.719z M106.281,3.719
				c-4.962,0-9,4.038-9,9s4.038,9,9,9s9-4.038,9-9S111.244,3.719,106.281,3.719z"/>
		</g>
		<g>
			<path d="M104.729,16.495c-0.255,0-0.511-0.097-0.706-0.292l-2.447-2.441c-0.391-0.39-0.392-1.023-0.002-1.414
				c0.39-0.391,1.022-0.393,1.414-0.002l1.74,1.736l4.847-4.847c0.391-0.391,1.023-0.391,1.414,0s0.391,1.023,0,1.414l-5.553,5.553
				C105.24,16.397,104.984,16.495,104.729,16.495z"/>
		</g>
	</g>
	<g>
		<g>
			<path d="M165.32,20.719h-22.078c-1.081,0-1.961-0.88-1.961-1.961V6.68c0-1.081,0.88-1.961,1.961-1.961h22.078
				c1.081,0,1.961,0.88,1.961,1.961v12.078C167.281,19.839,166.401,20.719,165.32,20.719z M165.281,6.68l-22.039,0.039l0.039,12.039
				l22-0.039V6.68z"/>
		</g>
		<g>
			<rect x="142.515" y="8.719" width="24" height="3"/>
		</g>
	</g>
	<g>
		<g>
			<path d="M261.271,10.536c-0.19,0-0.383-0.054-0.554-0.167l-10.445-6.952l-10.445,6.952c-0.461,0.305-1.081,0.181-1.387-0.277
				c-0.307-0.459-0.183-1.079,0.277-1.384l11-7.321c0.336-0.223,0.773-0.223,1.109,0l11,7.321c0.46,0.306,0.584,0.925,0.277,1.384
				C261.911,10.38,261.594,10.536,261.271,10.536z"/>
		</g>
		<g>
			<circle cx="250.271" cy="8.206" r="1"/>
		</g>
		<g>
			<g>
				<path d="M241.771,19.187v-5.989c0-0.551,0.448-0.998,1-0.998l0,0c0.553,0,1,0.447,1,0.998v5.989c0,0.551-0.447,0.999-1,0.999
					l0,0C242.22,20.185,241.771,19.738,241.771,19.187z"/>
			</g>
			<g>
				<path d="M246.771,19.187v-5.989c0-0.551,0.448-0.998,1-0.998l0,0c0.553,0,1,0.447,1,0.998v5.989c0,0.551-0.447,0.999-1,0.999
					l0,0C247.22,20.185,246.771,19.738,246.771,19.187z"/>
			</g>
			<g>
				<path d="M256.771,19.187v-5.989c0-0.551,0.448-0.998,1-0.998l0,0c0.553,0,1,0.447,1,0.998v5.989c0,0.551-0.447,0.999-1,0.999
					l0,0C257.22,20.185,256.771,19.738,256.771,19.187z"/>
			</g>
			<g>
				<path d="M251.771,19.187v-5.989c0-0.551,0.448-0.998,1-0.998l0,0c0.553,0,1,0.447,1,0.998v5.989c0,0.551-0.447,0.999-1,0.999
					l0,0C252.22,20.185,251.771,19.738,251.771,19.187z"/>
			</g>
		</g>
		<g>
			<path d="M260.291,24.219h-20c-0.553,0-1-0.447-1-0.998l0,0c0-0.552,0.447-0.999,1-0.999h20c0.553,0,1,0.447,1,0.999l0,0
				C261.291,23.772,260.844,24.219,260.291,24.219z"/>
		</g>
	</g>
	<g>
		<g>
			<path d="M298.281,23.719c-6.065,0-11-4.935-11-11s4.935-11,11-11s11,4.935,11,11S304.347,23.719,298.281,23.719z M298.281,3.719
				c-4.963,0-9,4.038-9,9s4.037,9,9,9s9-4.038,9-9S303.244,3.719,298.281,3.719z"/>
		</g>
		<g>
			<g>
				<circle cx="298.281" cy="17.219" r="1"/>
			</g>
			<g>
				<path d="M298.307,14.933c-0.483,0-0.875-0.392-0.875-0.875l-0.003-0.113c-0.018-0.534-0.054-1.644,1.404-2.661
					c0.062-0.053,0.174-0.14,0.282-0.225c0.614-0.476,0.791-0.639,0.791-1.205c0-0.683-0.744-1.26-1.625-1.26
					s-1.625,0.577-1.625,1.26c0,0.483-0.392,0.875-0.875,0.875s-0.875-0.392-0.875-0.875c0-1.66,1.514-3.01,3.375-3.01
					s3.375,1.351,3.375,3.01c0,1.449-0.814,2.081-1.469,2.588l-0.3,0.236c-0.732,0.514-0.722,0.836-0.71,1.209l0.004,0.17
					C299.182,14.542,298.79,14.933,298.307,14.933z"/>
			</g>
		</g>
	</g>
	<text transform="matrix(1 0 0 1 -5.7188 -4.5615)" fill="#FFFFFF" font-family="'Helvetica-Bold'" font-size="2">Locations</text>
	<text transform="matrix(1 0 0 1 -7.9043 -34.0347)" fill="#FFFFFF" font-family="'Helvetica-Bold'" font-size="12">Icons can be scaled from 32px to 48, 64, 80, 96</text>
	<text transform="matrix(1 0 0 1 -5.7188 43.4385)" fill="#FFFFFF" font-family="'Helvetica-Bold'" font-size="2">Activity</text>
	<text transform="matrix(1 0 0 1 -5.7188 91.4385)" fill="#FFFFFF" font-family="'Helvetica-Bold'" font-size="2">Preapproved</text>
	<text transform="matrix(1 0 0 1 42.2817 91.4385)" fill="#FFFFFF" font-family="'Helvetica-Bold'" font-size="2">Calculator</text>
	<text transform="matrix(1 0 0 1 90.2812 91.4385)" fill="#FFFFFF" font-family="'Helvetica-Bold'" font-size="2">Auto</text>
	<text transform="matrix(1 0 0 1 138.2817 91.4385)" fill="#FFFFFF" font-family="'Helvetica-Bold'" font-size="2">Move Money Option 1</text>
	<text transform="matrix(1 0 0 1 186.2812 91.4385)" fill="#FFFFFF" font-family="'Helvetica-Bold'" font-size="2">Move Money Option 2</text>
	<text transform="matrix(1 0 0 1 234.2812 91.4385)" fill="#FFFFFF" font-family="'Helvetica-Bold'" font-size="2">Incoming Call</text>
	<text transform="matrix(1 0 0 1 282.2812 91.4385)" fill="#FFFFFF" font-family="'Helvetica-Bold'" font-size="2">Outgoing Call</text>
	<text transform="matrix(1 0 0 1 330.2822 91.4385)" fill="#FFFFFF" font-family="'Helvetica-Bold'" font-size="2">Notifications</text>
	<text transform="matrix(1 0 0 1 378.2812 91.4385)" fill="#FFFFFF" font-family="'Helvetica-Bold'" font-size="2">Calendar</text>
	<text transform="matrix(1 0 0 1 42.2812 43.4385)" fill="#FFFFFF" font-family="'Helvetica-Bold'" font-size="2">Chat</text>
	<text transform="matrix(1 0 0 1 90.2812 43.4385)" fill="#FFFFFF" font-family="'Helvetica-Bold'" font-size="2">View / Preview / Review?</text>
	<text transform="matrix(1 0 0 1 42.2812 -4.5615)" fill="#FFFFFF" font-family="'Helvetica-Bold'" font-size="2">Customer Resources</text>
	<text transform="matrix(1 0 0 1 138.2812 -4.5615)" fill="#FFFFFF" font-family="'Helvetica-Bold'" font-size="2">Credit Cards</text>
	<text transform="matrix(1 0 0 1 234.2812 -4.5615)" fill="#FFFFFF" font-family="'Helvetica-Bold'" font-size="2">Branch</text>
	<text transform="matrix(1 0 0 1 282.2812 -4.5615)" fill="#FFFFFF" font-family="'Helvetica-Bold'" font-size="2">Questions &amp; FAQs</text>
	<text transform="matrix(1 0 0 1 330.2812 -4.5615)" fill="#FFFFFF" font-family="'Helvetica-Bold'" font-size="2">Accounts</text>
	<text transform="matrix(1 0 0 1 378.2812 -4.5615)" fill="#FFFFFF" font-family="'Helvetica-Bold'" font-size="2">Home Option 1</text>
	<text transform="matrix(1 0 0 1 426.2812 -4.5615)" fill="#FFFFFF" font-family="'Helvetica-Bold'" font-size="2">Home Option 2</text>
	<text transform="matrix(1 0 0 1 90.2812 -4.5615)" fill="#FFFFFF" font-family="'Helvetica-Bold'" font-size="2">Apply</text>
	<g>
		<g>
			<g>
				<path d="M352.105,14.73c-0.118-0.399-0.296-0.773-0.538-1.124c-0.241-0.349-0.54-0.66-0.898-0.931
					c-0.359-0.271-0.779-0.484-1.262-0.641c-0.193-0.057-0.513-0.146-0.961-0.268c-0.447-0.121-0.906-0.246-1.374-0.374
					c-0.469-0.129-0.893-0.246-1.271-0.354c-0.379-0.107-0.597-0.167-0.651-0.182c-0.523-0.157-0.947-0.388-1.271-0.695
					c-0.325-0.307-0.486-0.731-0.486-1.273c0-0.385,0.086-0.706,0.259-0.962c0.173-0.256,0.389-0.459,0.651-0.609
					c0.261-0.15,0.551-0.257,0.868-0.321c0.316-0.063,0.626-0.096,0.929-0.096c0.896,0,1.634,0.203,2.213,0.61
					c0.386,0.271,0.658,0.67,0.816,1.197c0.166,0.549,0.702,0.888,1.259,0.888h0.003c0.9,0,1.499-0.954,1.153-1.814
					c-0.04-0.1-0.084-0.197-0.131-0.292c-0.304-0.606-0.714-1.116-1.229-1.53c-0.518-0.414-1.116-0.724-1.799-0.931
					c-0.683-0.206-1.409-0.31-2.181-0.31c-0.662,0-1.316,0.089-1.964,0.268s-1.227,0.453-1.736,0.823
					c-0.51,0.372-0.919,0.838-1.229,1.401c-0.31,0.563-0.466,1.229-0.466,2c0,0.399,0.052,0.791,0.156,1.177
					c0.103,0.385,0.278,0.748,0.526,1.091c0.248,0.342,0.582,0.652,1.002,0.93c0.42,0.278,0.947,0.503,1.582,0.674
					c1.02,0.285,1.878,0.517,2.573,0.695c0.695,0.179,1.306,0.367,1.83,0.566c0.302,0.115,0.581,0.311,0.837,0.589
					c0.255,0.278,0.382,0.709,0.382,1.294c0,0.285-0.056,0.566-0.165,0.845c-0.11,0.277-0.29,0.523-0.538,0.738
					c-0.248,0.213-0.571,0.388-0.971,0.524c-0.4,0.136-0.883,0.203-1.447,0.203c-0.524,0-1.01-0.06-1.458-0.182
					c-0.448-0.121-0.843-0.313-1.188-0.578c-0.345-0.264-0.613-0.602-0.807-1.016c-0.132-0.28-0.2-0.615-0.243-0.974
					c-0.063-0.81-0.593-1.357-1.296-1.357c-0.701,0-1.304,0.612-1.304,1.357c0.061,0.722,0.219,1.367,0.487,1.926
					c0.33,0.692,0.771,1.259,1.321,1.701c0.552,0.442,1.2,0.77,1.943,0.984c0.745,0.214,1.536,0.321,2.377,0.321
					c0.73,0,1.447-0.089,2.15-0.268c0.703-0.178,1.329-0.459,1.881-0.845c0.551-0.385,0.995-0.88,1.333-1.486
					s0.507-1.337,0.507-2.193C352.281,15.528,352.223,15.129,352.105,14.73z"/>
			</g>
			<g>
				<path d="M346.281,6.809c-0.534,0-0.967-0.448-0.967-1v-3.09c0-0.552,0.433-1,0.967-1s0.967,0.448,0.967,1v3.09
					C347.248,6.361,346.815,6.809,346.281,6.809z"/>
			</g>
			<g>
				<path d="M346.281,23.719c-0.534,0-0.967-0.448-0.967-1V19.76c0-0.552,0.433-1,0.967-1s0.967,0.448,0.967,1v2.959
					C347.248,23.271,346.815,23.719,346.281,23.719z"/>
			</g>
		</g>
	</g>
	<g>
		<g>
			<path d="M402.371,24.218c-0.003,0-0.005,0-0.008,0l-5.6-0.043c-0.549-0.004-0.992-0.45-0.992-0.998v-4.991h-3v4.991
				c0,0.551-0.447,0.998-1,0.998h-5.577c-0.553,0-1-0.447-1-0.998v-9.989c0-0.551,0.447-0.998,1-0.998s1,0.447,1,0.998v8.991h3.577
				v-4.99c0-0.551,0.447-0.998,1-0.998h5c0.553,0,1,0.447,1,0.998v4.998l3.6,0.028v-8.983c0-0.551,0.447-0.998,1-0.998
				s1,0.447,1,0.998v9.989c0,0.266-0.106,0.521-0.296,0.709C402.888,24.115,402.635,24.218,402.371,24.218z"/>
		</g>
		<g>
			<path d="M405.271,10.534c-0.19,0-0.383-0.054-0.554-0.167l-10.445-6.951l-10.445,6.951c-0.462,0.306-1.081,0.181-1.387-0.277
				c-0.307-0.458-0.183-1.079,0.277-1.384l11-7.32c0.336-0.223,0.773-0.223,1.109,0l11,7.32c0.46,0.305,0.584,0.925,0.277,1.384
				C405.911,10.378,405.594,10.534,405.271,10.534z"/>
		</g>
	</g>
	<g>
		<g>
			<path d="M453.271,10.535c-0.19,0-0.383-0.054-0.554-0.167l-10.445-6.951l-10.445,6.951c-0.461,0.306-1.081,0.181-1.387-0.277
				c-0.307-0.458-0.183-1.079,0.277-1.384l11-7.32c0.336-0.223,0.773-0.223,1.109,0l11,7.32c0.46,0.305,0.584,0.925,0.277,1.384
				C453.911,10.379,453.594,10.535,453.271,10.535z"/>
		</g>
		<g>
			<path d="M450.371,24.219c-0.001,0-0.002,0-0.003,0l-16.177-0.043c-0.551-0.001-0.997-0.448-0.997-0.998v-9.989
				c0-0.551,0.447-0.998,1-0.998s1,0.447,1,0.998v8.994l14.177,0.038v-8.988c0-0.551,0.447-0.998,1-0.998s1,0.447,1,0.998v9.989
				c0,0.265-0.105,0.52-0.294,0.707C450.89,24.114,450.636,24.219,450.371,24.219z"/>
		</g>
		<g>
			<path d="M444.781,24.196h-5v-6.64c0-0.616,0.501-1.116,1.118-1.116h2.764c0.617,0,1.118,0.5,1.118,1.116V24.196z"/>
		</g>
	</g>
	<g>
		<g>
			<path d="M5.281,70.696c-0.447,0-0.839-0.295-0.962-0.723l-1.793-6.271h-3.245c-0.552,0-1-0.445-1-0.995s0.448-0.995,1-0.995h4
				c0.447,0,0.839,0.295,0.962,0.723l1.024,3.58l4.05-14.588c0.117-0.423,0.499-0.719,0.938-0.729
				c0.476-0.026,0.836,0.266,0.975,0.682l3.979,11.95l1.11-3.878c0.123-0.427,0.515-0.722,0.962-0.722h4c0.552,0,1,0.445,1,0.995
				s-0.448,0.995-1,0.995h-3.245l-1.793,6.264c-0.121,0.42-0.502,0.712-0.941,0.722c-0.437-0.008-0.833-0.267-0.97-0.682
				l-3.964-11.906l-4.123,14.85c-0.119,0.43-0.512,0.728-0.96,0.73C5.284,70.696,5.283,70.696,5.281,70.696z"/>
		</g>
	</g>
	<g>
		<g>
			<path d="M52.281,70.719c-0.171,0-0.342-0.044-0.495-0.131c-0.307-0.175-0.499-0.5-0.505-0.853l-0.047-3.016h-1.953
				c-1.103,0-2-0.897-2-2v-12c0-1.103,0.897-2,2-2h18c1.103,0,2,0.897,2,2v12c0,1.103-0.897,2-2,2h-7.734l-6.77,3.868
				C52.624,70.675,52.453,70.719,52.281,70.719z M49.281,52.719v12h2.938c0.546,0,0.991,0.438,1,0.984l0.036,2.308l5.53-3.16
				c0.151-0.086,0.322-0.132,0.496-0.132h8v-12H49.281z"/>
		</g>
		<g>
			<path d="M64.242,57.719H52.281c-0.552,0-1-0.448-1-1s0.448-1,1-1h11.961c0.552,0,1,0.448,1,1S64.794,57.719,64.242,57.719z"/>
		</g>
		<g>
			<path d="M59.242,61.719h-6.961c-0.552,0-1-0.448-1-1s0.448-1,1-1h6.961c0.552,0,1,0.448,1,1S59.794,61.719,59.242,61.719z"/>
		</g>
	</g>
	<g>
		<g>
			<path d="M106.373,68.719l-0.125-0.005c-0.002,0-0.006,0-0.008,0c-4.797,0-9.548-4.545-11.373-6.5
				c-0.782-0.838-0.782-2.151,0-2.989c1.825-1.956,6.582-6.506,11.322-6.506l0.125,0.005c0.002,0,0.006,0,0.008,0
				c4.797,0,9.548,4.545,11.373,6.5c0.782,0.838,0.782,2.151,0,2.989C115.87,64.169,111.113,68.719,106.373,68.719z M106.162,54.718
				c-4.039,0-8.547,4.494-9.832,5.871c-0.065,0.071-0.065,0.189,0,0.26c1.285,1.377,5.792,5.87,9.859,5.87h0.202
				c4.062-0.013,8.558-4.495,9.841-5.87c0.065-0.071,0.065-0.189,0-0.26c-1.285-1.377-5.792-5.87-9.859-5.87L106.162,54.718z"/>
		</g>
		<g>
			<path d="M106.281,64.719c-2.206,0-4-1.794-4-4s1.795-4,4-4s4,1.794,4,4S108.487,64.719,106.281,64.719z M106.281,58.719
				c-1.103,0-2,0.897-2,2s0.897,2,2,2s2-0.897,2-2S107.384,58.719,106.281,58.719z"/>
		</g>
	</g>
	<text transform="matrix(1 0 0 1 186.2812 -4.5615)" fill="#FFFFFF" font-family="'Helvetica-Bold'" font-size="2">Login / Filled Connection Secure</text>
	<g>
		<g>
			<g>
				<path d="M210.281,25.219h-16c-1.103,0-2-0.897-2-2v-12c0-1.103,0.897-2,2-2h16c1.103,0,2,0.897,2,2v12
					C212.281,24.322,211.384,25.219,210.281,25.219z M194.281,11.219v12h16.001l-0.001-12H194.281z"/>
			</g>
			<g>
				<path d="M208.281,10.566h-2V6.219c0-2.206-1.794-4-4-4s-4,1.794-4,4v4.348h-2V6.219c0-3.309,2.691-6,6-6s6,2.691,6,6V10.566z"/>
			</g>
		</g>
	</g>
	<g>
		<g>
			<path d="M159.281,73.719h-10c-1.654,0-3-1.346-3-3v-20c0-1.654,1.346-3,3-3h10c1.654,0,3,1.346,3,3v20
				C162.281,72.373,160.936,73.719,159.281,73.719z M149.281,49.719c-0.551,0-1,0.449-1,1v20c0,0.551,0.449,1,1,1h10
				c0.551,0,1-0.449,1-1v-20c0-0.551-0.449-1-1-1H149.281z"/>
		</g>
		<g>
			<circle cx="154.281" cy="69.719" r="1"/>
		</g>
		<g>
			<path d="M155.672,52.969h-2.76c-0.342,0-0.62-0.278-0.62-0.62v-0.01c0-0.342,0.278-0.62,0.62-0.62h2.76
				c0.342,0,0.62,0.278,0.62,0.62v0.01C156.292,52.691,156.014,52.969,155.672,52.969z"/>
		</g>
	</g>
	<text transform="matrix(1 0 0 1 138.2812 43.4385)" fill="#FFFFFF" font-family="'Helvetica-Bold'" font-size="2">Call</text>
	<text transform="matrix(1 0 0 1 186.2817 43.4385)" fill="#FFFFFF" font-family="'Helvetica-Bold'" font-size="2">Download App</text>
	<text transform="matrix(1 0 0 1 234.2812 43.4385)" fill="#FFFFFF" font-family="'Helvetica-Bold'" font-size="2">Checking</text>
	<text transform="matrix(1 0 0 1 282.2812 43.4385)" fill="#FFFFFF" font-family="'Helvetica-Bold'" font-size="2">Search</text>
	<text transform="matrix(1 0 0 1 330.2812 43.4385)" fill="#FFFFFF" font-family="'Helvetica-Bold'" font-size="2">Settings</text>
	<text transform="matrix(1 0 0 1 378.2812 43.4385)" fill="#FFFFFF" font-family="'Helvetica-Bold'" font-size="2">Request a Call / Customer Service</text>
	<text transform="matrix(1 0 0 1 426.2812 43.4385)" fill="#FFFFFF" font-family="'Helvetica-Bold'" font-size="2">Form</text>
	<g>
		<g>
			<path d="M207.281,73.719h-10c-1.654,0-3-1.346-3-3v-20c0-1.654,1.346-3,3-3h10c1.654,0,3,1.346,3,3v20
				C210.281,72.373,208.936,73.719,207.281,73.719z M197.281,49.719c-0.551,0-1,0.449-1,1v20c0,0.551,0.449,1,1,1h10
				c0.551,0,1-0.449,1-1v-20c0-0.551-0.449-1-1-1H197.281z"/>
		</g>
		<g>
			<circle cx="202.281" cy="69.719" r="1"/>
		</g>
		<g>
			<g>
				<path d="M202.281,64.469c-0.414,0-0.75-0.336-0.75-0.75v-10c0-0.414,0.336-0.75,0.75-0.75s0.75,0.336,0.75,0.75v10
					C203.031,64.133,202.695,64.469,202.281,64.469z"/>
			</g>
			<g>
				<path d="M202.281,64.469c-0.192,0-0.384-0.073-0.53-0.22l-3-3c-0.293-0.293-0.293-0.768,0-1.061s0.768-0.293,1.061,0l2.47,2.47
					l2.47-2.47c0.293-0.293,0.768-0.293,1.061,0s0.293,0.768,0,1.061l-3,3C202.665,64.396,202.473,64.469,202.281,64.469z"/>
			</g>
		</g>
	</g>
	<g>
		<g>
			<g>
				<path d="M261.281,68.719h-22c-1.103,0-2-0.897-2-2v-12c0-1.103,0.897-2,2-2h22c1.103,0,2,0.897,2,2v12
					C263.281,67.822,262.384,68.719,261.281,68.719z M239.281,54.719v12h22.001l-0.001-12H239.281z"/>
			</g>
			<g>
				<path d="M248.281,59.719h-6c-0.553,0-1-0.448-1-1s0.447-1,1-1h6c0.553,0,1,0.448,1,1S248.834,59.719,248.281,59.719z"/>
			</g>
			<g>
				<path d="M258.281,63.719h-16c-0.553,0-1-0.448-1-1s0.447-1,1-1h16c0.553,0,1,0.448,1,1S258.834,63.719,258.281,63.719z"/>
			</g>
		</g>
	</g>
	<g>
		<g>
			<g>
				<path d="M295.939,65.535c-3.946,0-7.158-3.211-7.158-7.158s3.212-7.158,7.158-7.158s7.158,3.211,7.158,7.158
					S299.886,65.535,295.939,65.535z M295.939,53.264c-2.819,0-5.113,2.293-5.113,5.113s2.294,5.113,5.113,5.113
					s5.113-2.293,5.113-5.113S298.759,53.264,295.939,53.264z"/>
			</g>
			<g>
				<path d="M306.759,70.219c-0.262,0-0.523-0.1-0.724-0.3l-6.387-6.387c-0.399-0.399-0.399-1.046,0-1.446s1.047-0.399,1.446,0
					l6.387,6.387c0.399,0.399,0.399,1.046,0,1.446C307.282,70.119,307.021,70.219,306.759,70.219z"/>
			</g>
		</g>
	</g>
	<g>
		<g>
			<g>
				<path d="M347.542,72.719h-2.521c-0.97,0-1.812-0.71-2.001-1.688l-0.489-2.516c-0.315-0.163-0.625-0.349-0.927-0.557
					l-2.368,0.825c-0.917,0.321-1.936-0.075-2.421-0.939l-1.263-2.249c-0.482-0.864-0.307-1.968,0.422-2.627l1.874-1.696
					c-0.014-0.192-0.02-0.374-0.02-0.553s0.006-0.361,0.02-0.553l-1.874-1.695c-0.729-0.659-0.904-1.764-0.422-2.627l1.263-2.25
					c0.485-0.864,1.503-1.261,2.421-0.939l2.368,0.825c0.302-0.208,0.611-0.395,0.927-0.557l0.489-2.516
					c0.189-0.979,1.031-1.688,2.001-1.688h2.521c0.97,0,1.812,0.71,2.001,1.688l0.489,2.516c0.315,0.163,0.625,0.349,0.927,0.557
					l2.368-0.825c0.918-0.321,1.936,0.075,2.421,0.939l1.263,2.249c0.482,0.864,0.307,1.968-0.422,2.627l-1.874,1.696
					c0.014,0.192,0.02,0.374,0.02,0.553s-0.006,0.361-0.02,0.553l1.874,1.695c0.729,0.659,0.904,1.764,0.422,2.627l-1.263,2.25
					c-0.485,0.864-1.504,1.259-2.421,0.939l-2.368-0.825c-0.302,0.208-0.611,0.395-0.927,0.557l-0.489,2.516
					C349.354,72.009,348.512,72.719,347.542,72.719z M341.941,65.729l0.411,0.322c0.45,0.353,0.925,0.638,1.409,0.847l0.477,0.206
					l0.686,3.536c0.011,0.046,0.05,0.08,0.097,0.08h2.521c0.047,0,0.086-0.034,0.097-0.08l0.686-3.536l0.477-0.206
					c0.484-0.209,0.959-0.494,1.409-0.847l0.411-0.322l3.328,1.159c0.043,0.015,0.094-0.004,0.116-0.044l1.261-2.25
					c0.023-0.041,0.015-0.094-0.02-0.125l-2.637-2.385l0.064-0.526c0.033-0.275,0.057-0.554,0.057-0.839s-0.023-0.563-0.057-0.839
					l-0.064-0.526l2.637-2.386c0.034-0.031,0.043-0.083,0.02-0.125l-1.261-2.249c-0.021-0.042-0.071-0.058-0.116-0.044l-3.328,1.159
					l-0.411-0.322c-0.45-0.353-0.925-0.638-1.409-0.847l-0.477-0.206l-0.686-3.536c-0.011-0.046-0.05-0.08-0.097-0.08h-2.521
					c-0.047,0-0.086,0.034-0.097,0.08l-0.686,3.536l-0.477,0.206c-0.484,0.209-0.959,0.494-1.409,0.847l-0.411,0.322l-3.328-1.159
					c-0.047-0.015-0.095,0.004-0.116,0.044l-1.261,2.25c-0.023,0.041-0.015,0.094,0.02,0.125l2.637,2.385l-0.064,0.526
					c-0.033,0.275-0.057,0.554-0.057,0.839s0.023,0.563,0.057,0.839l0.064,0.526l-2.637,2.386c-0.034,0.031-0.043,0.083-0.02,0.125
					l1.261,2.249c0.022,0.042,0.072,0.059,0.116,0.044L341.941,65.729z"/>
			</g>
			<g>
				<path d="M346.281,64.719c-2.144,0-3.887-1.794-3.887-4s1.743-4,3.887-4s3.887,1.794,3.887,4S348.425,64.719,346.281,64.719z
					 M346.281,58.719c-1.071,0-1.944,0.897-1.944,2s0.873,2,1.944,2s1.944-0.897,1.944-2S347.353,58.719,346.281,58.719z"/>
			</g>
		</g>
	</g>
	<g>
		<g>
			<g>
				<path d="M402.609,62.928h-1.279c-0.481,0-0.871-0.386-0.871-0.863s0.39-0.863,0.871-0.863h1.279
					c0.499,0,0.905-0.403,0.905-0.898c0-0.495-0.406-0.897-0.905-0.897h-1.274c-0.481,0-0.871-0.386-0.871-0.863
					s0.39-0.863,0.871-0.863h1.274c1.46,0,2.647,1.177,2.647,2.624S404.069,62.928,402.609,62.928z"/>
			</g>
			<g>
				<path d="M387.809,62.928h-1.904c-1.46,0-2.647-1.178-2.647-2.625s1.188-2.624,2.647-2.624h1.807v1.727h-1.807
					c-0.499,0-0.905,0.402-0.905,0.897c0,0.495,0.406,0.898,0.905,0.898h1.904V62.928z"/>
			</g>
			<g>
				<path d="M396.59,70.492h-0.946v-1.727h0.946c2.132,0,3.866-1.719,3.866-3.832l0.009-7.763c0-3.432-2.833-6.225-6.314-6.225
					c-3.505,0-6.336,2.793-6.336,6.226v5.627h-1.742v-5.627c0-4.385,3.612-7.953,8.053-7.953c4.468,0,8.082,3.567,8.082,7.953
					l-0.009,7.763C402.198,67.999,399.683,70.492,396.59,70.492z"/>
			</g>
			<g>
				<path d="M394.149,72.219c-1.44,0-2.612-1.162-2.612-2.59c0-1.428,1.172-2.59,2.612-2.59c1.441,0,2.613,1.162,2.613,2.59
					C396.763,71.057,395.591,72.219,394.149,72.219z M394.149,68.765c-0.479,0-0.87,0.388-0.87,0.864
					c0,0.476,0.391,0.863,0.87,0.863c0.48,0,0.871-0.388,0.871-0.863C395.021,69.153,394.63,68.765,394.149,68.765z"/>
			</g>
		</g>
	</g>
	<g>
		<g>
			<g>
				<path d="M449.366,72.719h-14.17c-1.607,0-2.915-1.308-2.915-2.915v-18.17c0-1.607,1.308-2.915,2.915-2.915h14.17
					c1.607,0,2.915,1.308,2.915,2.915v18.17C452.281,71.411,450.974,72.719,449.366,72.719z M435.196,50.719
					c-0.505,0-0.915,0.411-0.915,0.915v18.17c0,0.504,0.41,0.915,0.915,0.915h14.17c0.505,0,0.915-0.411,0.915-0.915v-18.17
					c0-0.504-0.41-0.915-0.915-0.915H435.196z"/>
			</g>
			<g>
				<path d="M447.281,55.719h-10c-0.553,0-1-0.448-1-1s0.447-1,1-1h10c0.553,0,1,0.448,1,1S447.834,55.719,447.281,55.719z"/>
			</g>
			<g>
				<path d="M447.281,60.719h-10c-0.553,0-1-0.448-1-1s0.447-1,1-1h10c0.553,0,1,0.448,1,1S447.834,60.719,447.281,60.719z"/>
			</g>
			<g>
				<path d="M442.281,65.719h-5c-0.553,0-1-0.448-1-1s0.447-1,1-1h5c0.553,0,1,0.448,1,1S442.834,65.719,442.281,65.719z"/>
			</g>
		</g>
	</g>
	<g>
		<g>
			<g>
				<path d="M17.062,118.719H7.4c-0.561,0-1.016-0.448-1.016-1v-10.958c0-1.076,0.559-2.092,1.495-2.719
					c0.719-0.48,1.021-0.683,1.687-1.522c0.769-0.977,0.805-1.509,0.865-2.392c0.012-0.16,0.023-0.325,0.039-0.498
					c0.047-0.516,0.486-0.911,1.012-0.911h2.665c1.332,0,2.415,1.066,2.415,2.377v3.623h2.814c1.326,0,2.405,1.109,2.405,2.472
					c0,0.08-0.01,0.16-0.029,0.237l-2.354,9.476C19.144,117.969,18.183,118.719,17.062,118.719z M8.417,116.719h8.646
					c0.172,0,0.32-0.115,0.359-0.281l2.32-9.338c-0.034-0.214-0.188-0.381-0.365-0.381h-3.83c-0.562,0-1.017-0.448-1.017-1v-4.623
					c0-0.204-0.175-0.377-0.383-0.377h-1.723c-0.08,0.861-0.279,1.789-1.254,3.028c-0.863,1.089-1.379,1.434-2.093,1.912
					c-0.434,0.291-0.66,0.689-0.66,1.102V116.719z"/>
			</g>
			<g>
				<path d="M3.861,118.719h-4.064c-0.561,0-1.016-0.448-1.016-1v-12c0-0.552,0.455-1,1.016-1h4.064c0.561,0,1.016,0.448,1.016,1v12
					C4.877,118.271,4.422,118.719,3.861,118.719z M0.813,116.719h2.032v-10H0.813V116.719z"/>
			</g>
		</g>
	</g>
	<g>
		<g>
			<path d="M58.281,119.719c-6.065,0-11-4.935-11-11s4.935-11,11-11s11,4.935,11,11S64.347,119.719,58.281,119.719z M58.281,99.719
				c-4.962,0-9,4.038-9,9s4.038,9,9,9s9-4.038,9-9S63.244,99.719,58.281,99.719z"/>
		</g>
		<g>
			<path d="M62.281,107.719h-8c-0.552,0-1-0.448-1-1s0.448-1,1-1h8c0.552,0,1,0.448,1,1S62.833,107.719,62.281,107.719z"/>
		</g>
		<g>
			<path d="M62.281,111.719h-8c-0.552,0-1-0.448-1-1s0.448-1,1-1h8c0.552,0,1,0.448,1,1S62.833,111.719,62.281,111.719z"/>
		</g>
	</g>
	<g>
		<g>
			<g>
				<path d="M100.263,116.621c-1.737,0-3.15-1.391-3.15-3.101c0-1.71,1.413-3.101,3.15-3.101s3.15,1.391,3.15,3.101
					C103.413,115.23,102,116.621,100.263,116.621z M100.263,112.172c-0.745,0-1.35,0.605-1.35,1.348c0,0.744,0.605,1.349,1.35,1.349
					s1.35-0.605,1.35-1.349C101.613,112.777,101.007,112.172,100.263,112.172z"/>
			</g>
			<g>
				<path d="M111.883,116.595c-1.356-0.385-2.352-1.617-2.352-3.075c0-1.764,1.458-3.198,3.25-3.198s3.25,1.435,3.25,3.198
					c0,1.764-1.458,3.199-3.25,3.199C112.47,116.719,112.168,116.675,111.883,116.595 M112.781,112.27
					c-0.689,0-1.25,0.562-1.25,1.25c0,0.69,0.561,1.251,1.25,1.251s1.25-0.561,1.25-1.251
					C114.031,112.831,113.471,112.27,112.781,112.27z"/>
			</g>
			<g>
				<path d="M109.963,114.484h-7.094c-0.552,0-1-0.436-1-0.974c0-0.538,0.448-0.975,1-0.975h7.094c0.552,0,1,0.437,1,0.975
					C110.963,114.048,110.515,114.484,109.963,114.484z"/>
			</g>
			<g>
				<path d="M118.281,114.484h-3.25c-0.552,0-1-0.436-1-0.974c0-0.538,0.448-0.975,1-0.975h2.25v-2.972
					c0-0.9-0.734-1.646-1.636-1.662l-1.151-0.021H95.078c-0.552,0-1-0.436-1-0.974c0-0.538,0.448-0.974,1-0.974l20.605,0.021
					c1.984,0.036,3.598,1.656,3.598,3.61v3.946C119.281,114.048,118.833,114.484,118.281,114.484z"/>
			</g>
			<g>
				<path d="M97.934,114.432l-4.652-1.541v-6.211l2.367-4.688c0.396-0.786,1.197-1.274,2.09-1.274h10.581
					c0.723,0,1.392,0.321,1.837,0.88l3.56,4.466l-1.58,1.194l-3.561-4.466c-0.064-0.081-0.157-0.126-0.257-0.126H97.738
					c-0.125,0-0.238,0.071-0.295,0.185l-2.162,4.281v4.363l3.296,1.092L97.934,114.432z"/>
			</g>
			<g>
				<path d="M103.615,107.728c-0.552,0-1-0.436-1-0.974v-4.781c0-0.538,0.448-0.974,1-0.974s1,0.436,1,0.974v4.781
					C104.615,107.292,104.167,107.728,103.615,107.728z"/>
			</g>
		</g>
	</g>
	<g>
		<g>
			<path d="M163.783,106.719c-0.423,0-0.816-0.273-0.95-0.701c-1.181-3.768-4.617-6.3-8.552-6.3c-3.935,0-7.372,2.532-8.552,6.3
				c-0.165,0.528-0.725,0.82-1.25,0.654c-0.525-0.166-0.817-0.727-0.652-1.254c1.443-4.606,5.644-7.7,10.454-7.7
				c4.81,0,9.011,3.094,10.454,7.7c0.165,0.527-0.127,1.088-0.652,1.254C163.983,106.704,163.883,106.719,163.783,106.719z"/>
		</g>
		<g>
			<path d="M154.281,119.719c-4.81,0-9.011-3.094-10.454-7.7c-0.165-0.527,0.127-1.088,0.652-1.254
				c0.524-0.163,1.085,0.127,1.25,0.654c1.181,3.768,4.617,6.3,8.552,6.3c3.935,0,7.371-2.532,8.552-6.3
				c0.165-0.527,0.727-0.817,1.25-0.654c0.525,0.166,0.817,0.727,0.652,1.254C163.292,116.625,159.091,119.719,154.281,119.719z"/>
		</g>
		<g>
			<path d="M164.466,108.932c-0.149,0-0.301-0.034-0.444-0.105l-3.567-1.785c-0.493-0.247-0.693-0.847-0.447-1.341
				s0.843-0.694,1.336-0.449l2.676,1.339l1.334-2.684c0.247-0.494,0.845-0.694,1.337-0.449c0.493,0.247,0.693,0.847,0.447,1.341
				l-1.779,3.579C165.184,108.729,164.832,108.932,164.466,108.932z"/>
		</g>
		<g>
			<path d="M142.239,114.116c-0.149,0-0.301-0.034-0.444-0.105c-0.493-0.247-0.693-0.847-0.447-1.341l1.78-3.58
				c0.118-0.237,0.325-0.418,0.576-0.502c0.25-0.083,0.524-0.065,0.76,0.053l3.567,1.786c0.493,0.247,0.693,0.847,0.447,1.341
				c-0.246,0.494-0.845,0.694-1.336,0.449l-2.676-1.339l-1.334,2.685C142.957,113.913,142.604,114.116,142.239,114.116z"/>
		</g>
	</g>
	<g>
		<g>
			<g>
				<g>
					<path d="M213.281,106.958h-13c-0.552,0-1-0.451-1-1.006s0.448-1.006,1-1.006h13c0.552,0,1,0.451,1,1.006
						S213.833,106.958,213.281,106.958z"/>
				</g>
				<g>
					<path d="M209.081,111.184c-0.256,0-0.512-0.098-0.707-0.294c-0.391-0.393-0.391-1.03,0-1.423l3.493-3.515l-3.493-3.515
						c-0.391-0.393-0.391-1.03,0-1.423s1.023-0.393,1.414,0l4.2,4.227c0.391,0.393,0.391,1.03,0,1.423l-4.2,4.227
						C209.593,111.086,209.337,111.184,209.081,111.184z"/>
				</g>
			</g>
			<g>
				<g>
					<path d="M204.281,112.492h-13c-0.552,0-1-0.451-1-1.006s0.448-1.006,1-1.006h13c0.552,0,1,0.451,1,1.006
						S204.833,112.492,204.281,112.492z"/>
				</g>
				<g>
					<path d="M195.481,116.719c-0.256,0-0.512-0.099-0.707-0.295l-4.2-4.227c-0.391-0.393-0.391-1.03,0-1.423l4.2-4.227
						c0.391-0.393,1.023-0.393,1.414,0s0.391,1.03,0,1.423l-3.493,3.515l3.493,3.515c0.391,0.393,0.391,1.03,0,1.423
						C195.993,116.62,195.737,116.719,195.481,116.719z"/>
				</g>
			</g>
		</g>
	</g>
	<g>
		<g>
			<path d="M255.067,121.719h-9.836c-1.627,0-2.95-1.346-2.95-3v-20c0-1.654,1.323-3,2.95-3h3.935c0.544,0,0.983,0.448,0.983,1
				s-0.439,1-0.983,1h-3.935c-0.542,0-0.983,0.449-0.983,1v20c0,0.551,0.441,1,0.983,1h9.836c0.543,0,0.983-0.449,0.983-1v-11
				c0-0.552,0.44-1,0.983-1c0.544,0,0.984,0.448,0.984,1v11C258.019,120.373,256.694,121.719,255.067,121.719z"/>
		</g>
		<g>
			<ellipse cx="250.149" cy="117.719" rx="0.983" ry="1"/>
		</g>
		<g>
			<path d="M251.379,104.469c-0.251,0-0.503-0.098-0.695-0.293c-0.384-0.391-0.384-1.023,0-1.414l5.919-6.018
				c0.384-0.391,1.007-0.391,1.391,0s0.384,1.023,0,1.414l-5.919,6.018C251.883,104.371,251.631,104.469,251.379,104.469z"/>
		</g>
		<g>
			<path d="M255.067,104.719h-3.935c-0.543,0-0.983-0.448-0.983-1v-3.975c0-0.552,0.44-1,0.983-1c0.544,0,0.984,0.448,0.984,1v2.975
				h2.95c0.544,0,0.983,0.448,0.983,1S255.611,104.719,255.067,104.719z"/>
		</g>
	</g>
	<g>
		<g>
			<path d="M303.281,121.719h-10c-1.654,0-3-1.346-3-3v-20c0-1.654,1.346-3,3-3h3c0.553,0,1,0.448,1,1s-0.447,1-1,1h-3
				c-0.552,0-1,0.449-1,1v20c0,0.551,0.448,1,1,1h10c0.552,0,1-0.449,1-1v-13c0-0.552,0.447-1,1-1s1,0.448,1,1v13
				C306.281,120.373,304.936,121.719,303.281,121.719z"/>
		</g>
		<g>
			<circle cx="298.281" cy="117.719" r="1"/>
		</g>
		<g>
			<g>
				<path d="M299.014,103.986c-0.256,0-0.512-0.098-0.707-0.293c-0.391-0.391-0.391-1.023,0-1.414l6.018-6.018
					c0.391-0.391,1.023-0.391,1.414,0s0.391,1.023,0,1.414l-6.018,6.018C299.525,103.889,299.27,103.986,299.014,103.986z"/>
			</g>
			<g>
				<path d="M305.281,101.694c-0.553,0-1-0.448-1-1v-2.975h-3c-0.553,0-1-0.448-1-1s0.447-1,1-1h4c0.553,0,1,0.448,1,1v3.975
					C306.281,101.246,305.834,101.694,305.281,101.694z"/>
			</g>
		</g>
	</g>
	<g>
		<g>
			<g>
				<path d="M354.797,116.741c-0.005,0.001-0.012,0-0.02,0h-16.992c-0.43,0-0.812-0.277-0.944-0.687
					c-0.135-0.409,0.011-0.858,0.357-1.113c1.265-0.927,2.02-2.417,2.02-3.985v-4.795c0-3.901,3.169-7.074,7.063-7.074
					s7.063,3.173,7.063,7.074v4.819c0,1.52,0.713,2.962,1.915,3.883c0.315,0.166,0.531,0.499,0.531,0.881
					C355.791,116.295,355.347,116.741,354.797,116.741z M340.074,114.75h12.407c-0.724-1.107-1.125-2.417-1.125-3.769v-4.819
					c0-2.803-2.277-5.083-5.075-5.083s-5.075,2.28-5.075,5.083v4.795C341.206,112.316,340.802,113.634,340.074,114.75z"/>
			</g>
			<g>
				<path d="M346.281,100.75c-0.55,0-0.994-0.446-0.994-0.996v-1.041c0-0.55,0.444-0.996,0.994-0.996s0.994,0.446,0.994,0.996v1.041
					C347.275,100.305,346.831,100.75,346.281,100.75z"/>
			</g>
			<g>
				<path d="M348.27,117.728c0,1.1-0.891,1.991-1.988,1.991s-1.988-0.892-1.988-1.991H348.27z"/>
			</g>
		</g>
	</g>
	<g>
		<g>
			<g>
				<path d="M390.278,103.773c-0.553,0-1-0.453-1-1.011v-3.033c0-0.558,0.447-1.011,1-1.011s1,0.453,1,1.011v3.033
					C391.278,103.32,390.831,103.773,390.278,103.773z"/>
			</g>
			<g>
				<path d="M398.284,103.773c-0.553,0-1-0.453-1-1.011v-3.033c0-0.558,0.447-1.011,1-1.011s1,0.453,1,1.011v3.033
					C399.284,103.32,398.837,103.773,398.284,103.773z"/>
			</g>
			<g>
				<path d="M395.281,102.334h-2c-0.553,0-1-0.453-1-1.011c0-0.558,0.447-1.011,1-1.011h2c0.553,0,1,0.453,1,1.011
					C396.281,101.881,395.834,102.334,395.281,102.334z"/>
			</g>
			<g>
				<path d="M401.121,118.719h-13.68c-1.742,0-3.16-1.433-3.16-3.194v-12.019c0-1.761,1.418-3.194,3.16-3.194
					c0.553,0,1,0.453,1,1.011c0,0.559-0.447,1.011-1,1.011c-0.64,0-1.16,0.525-1.16,1.172v12.019c0,0.646,0.521,1.172,1.16,1.172
					h13.68c0.64,0,1.16-0.526,1.16-1.172v-12.019c0-0.646-0.521-1.172-1.16-1.172c-0.553,0-1-0.453-1-1.011
					c0-0.558,0.447-1.011,1-1.011c1.742,0,3.16,1.433,3.16,3.194v12.019C404.281,117.286,402.863,118.719,401.121,118.719z"/>
			</g>
			<g>
				<path d="M403.281,107.519h-18c-0.553,0-1-0.453-1-1.011c0-0.558,0.447-1.011,1-1.011h18c0.553,0,1,0.453,1,1.011
					C404.281,107.066,403.834,107.519,403.281,107.519z"/>
			</g>
		</g>
	</g>
	<text transform="matrix(1 0 0 1 -5.7188 139.4385)" fill="#FFFFFF" font-family="'Helvetica-Bold'" font-size="2">Payment History Option 1</text>
	<text transform="matrix(1 0 0 1 42.2812 139.4385)" fill="#FFFFFF" font-family="'Helvetica-Bold'" font-size="2">Payment History Option 2</text>
	<g>
		<g>
			<g>
				<path d="M11.319,167.719c-4.813,0-9.017-3.095-10.458-7.7c-0.165-0.527,0.127-1.088,0.652-1.254
					c0.523-0.164,1.084,0.128,1.25,0.654c1.18,3.769,4.618,6.3,8.557,6.3c4.945,0,8.969-4.037,8.969-9s-4.023-9-8.969-9
					c-3.939,0-7.377,2.531-8.557,6.3c-0.165,0.527-0.726,0.818-1.25,0.654c-0.525-0.166-0.817-0.727-0.652-1.254
					c1.441-4.605,5.645-7.7,10.458-7.7c6.044,0,10.962,4.935,10.962,11S17.364,167.719,11.319,167.719z"/>
			</g>
			<g>
				<path d="M1.059,156.901c-0.366,0-0.718-0.203-0.893-0.554l-1.779-3.58c-0.246-0.494-0.045-1.095,0.447-1.341
					c0.491-0.25,1.091-0.046,1.336,0.448l1.335,2.686l2.675-1.339c0.492-0.249,1.091-0.045,1.337,0.448
					c0.246,0.494,0.045,1.095-0.447,1.341l-3.567,1.785C1.36,156.868,1.208,156.901,1.059,156.901z"/>
			</g>
		</g>
		<g>
			<path d="M14.623,157.825c-0.066-0.22-0.168-0.426-0.305-0.618c-0.137-0.192-0.306-0.362-0.51-0.512
				c-0.203-0.149-0.442-0.267-0.715-0.353c-0.109-0.031-0.291-0.081-0.545-0.147s-0.514-0.135-0.779-0.206
				c-0.266-0.07-0.506-0.135-0.721-0.194c-0.215-0.059-0.338-0.092-0.37-0.1c-0.297-0.086-0.538-0.214-0.721-0.382
				c-0.183-0.169-0.275-0.402-0.275-0.701c0-0.211,0.049-0.388,0.147-0.529c0.098-0.141,0.221-0.252,0.369-0.335
				c0.148-0.082,0.312-0.141,0.492-0.177c0.18-0.035,0.356-0.053,0.527-0.053c0.508,0,0.927,0.112,1.255,0.336
				c0.219,0.148,0.374,0.368,0.463,0.658c0.094,0.302,0.398,0.488,0.713,0.488h0.002c0.511,0,0.85-0.524,0.655-0.998
				c-0.023-0.055-0.048-0.108-0.075-0.16c-0.172-0.334-0.405-0.614-0.698-0.842s-0.633-0.397-1.02-0.512
				c-0.207-0.061-0.423-0.103-0.645-0.131v-1.14c0-0.304-0.245-0.55-0.548-0.55s-0.548,0.246-0.548,0.55v1.133
				c-0.205,0.024-0.408,0.061-0.61,0.114c-0.368,0.099-0.696,0.249-0.985,0.453s-0.522,0.461-0.698,0.771s-0.263,0.677-0.263,1.1
				c0,0.22,0.029,0.436,0.087,0.647c0.059,0.212,0.159,0.411,0.299,0.6c0.141,0.188,0.331,0.359,0.569,0.512
				c0.238,0.153,0.537,0.277,0.897,0.371c0.578,0.157,1.065,0.284,1.459,0.382c0.395,0.099,0.741,0.202,1.038,0.312
				c0.172,0.062,0.331,0.17,0.475,0.323c0.144,0.152,0.217,0.39,0.217,0.712c0,0.156-0.032,0.312-0.094,0.465
				c-0.063,0.152-0.164,0.288-0.305,0.405c-0.141,0.118-0.325,0.214-0.551,0.288c-0.227,0.075-0.5,0.112-0.821,0.112
				c-0.296,0-0.572-0.033-0.826-0.101c-0.254-0.066-0.479-0.172-0.674-0.317c-0.196-0.145-0.348-0.331-0.458-0.559
				c-0.074-0.154-0.114-0.338-0.138-0.536c-0.036-0.445-0.336-0.746-0.735-0.746c-0.398,0-0.739,0.337-0.739,0.746
				c0.034,0.397,0.124,0.752,0.275,1.06c0.188,0.381,0.438,0.692,0.75,0.936c0.313,0.243,0.681,0.423,1.103,0.541
				c0.233,0.065,0.477,0.108,0.727,0.137v1.14c0,0.304,0.245,0.55,0.548,0.55s0.548-0.246,0.548-0.55v-1.128
				c0.25-0.023,0.5-0.059,0.745-0.119c0.398-0.098,0.753-0.253,1.066-0.465s0.564-0.483,0.756-0.817
				c0.191-0.333,0.287-0.735,0.287-1.206C14.722,158.264,14.689,158.044,14.623,157.825z"/>
			<path d="M11.319,162.894c-0.371,0-0.673-0.303-0.673-0.675v-1.029c-0.232-0.03-0.441-0.072-0.636-0.127
				c-0.437-0.122-0.822-0.312-1.145-0.562c-0.326-0.254-0.59-0.583-0.785-0.979c-0.155-0.314-0.252-0.687-0.288-1.104
				c0-0.483,0.395-0.882,0.863-0.882c0.464,0,0.818,0.354,0.859,0.861c0.025,0.209,0.065,0.366,0.126,0.491
				c0.1,0.209,0.241,0.381,0.419,0.513c0.181,0.135,0.393,0.234,0.631,0.297c0.241,0.064,0.509,0.097,0.794,0.097
				c0.307,0,0.57-0.036,0.782-0.106c0.211-0.068,0.382-0.158,0.51-0.265c0.124-0.104,0.214-0.224,0.269-0.357
				c0.056-0.138,0.085-0.278,0.085-0.417c0-0.287-0.062-0.498-0.183-0.626c-0.13-0.138-0.274-0.235-0.427-0.292
				c-0.287-0.106-0.631-0.21-1.025-0.309c-0.395-0.098-0.882-0.225-1.462-0.382c-0.369-0.097-0.682-0.227-0.932-0.387
				c-0.249-0.159-0.451-0.342-0.601-0.542c-0.149-0.201-0.257-0.417-0.319-0.642c-0.061-0.222-0.092-0.451-0.092-0.681
				c0-0.443,0.094-0.835,0.28-1.161c0.185-0.324,0.431-0.598,0.734-0.812c0.298-0.21,0.643-0.369,1.024-0.472
				c0.164-0.043,0.334-0.077,0.517-0.104v-1.022c0-0.372,0.302-0.675,0.673-0.675c0.371,0,0.672,0.303,0.672,0.675v1.03
				c0.199,0.03,0.382,0.069,0.556,0.12c0.402,0.119,0.759,0.298,1.062,0.533c0.306,0.237,0.552,0.535,0.731,0.883
				c0.028,0.055,0.055,0.111,0.079,0.169c0.109,0.265,0.08,0.563-0.078,0.801c-0.155,0.232-0.414,0.371-0.692,0.371
				c-0.386,0-0.729-0.237-0.834-0.576c-0.081-0.261-0.221-0.46-0.415-0.592c-0.307-0.209-0.705-0.314-1.185-0.314
				c-0.163,0-0.332,0.017-0.503,0.051c-0.167,0.033-0.321,0.088-0.456,0.163c-0.131,0.073-0.241,0.174-0.327,0.297
				c-0.083,0.119-0.125,0.273-0.125,0.458c0,0.265,0.077,0.464,0.235,0.609c0.169,0.154,0.395,0.273,0.671,0.354
				c0.027,0.007,0.151,0.04,0.367,0.099c0.215,0.06,0.455,0.124,0.72,0.194c0.266,0.071,0.526,0.14,0.78,0.206
				c0.255,0.066,0.438,0.117,0.547,0.148c0.289,0.091,0.542,0.216,0.755,0.372c0.214,0.157,0.395,0.339,0.538,0.54
				c0.144,0.202,0.252,0.422,0.323,0.654c0.07,0.229,0.105,0.463,0.105,0.694c0,0.491-0.103,0.918-0.304,1.269
				c-0.2,0.348-0.467,0.637-0.794,0.858c-0.325,0.22-0.697,0.383-1.107,0.482c-0.196,0.049-0.405,0.085-0.65,0.111v1.015
				C11.992,162.591,11.69,162.894,11.319,162.894z M8.656,157.785c-0.333,0-0.615,0.284-0.615,0.621
				c0.033,0.376,0.121,0.718,0.262,1.004c0.179,0.361,0.419,0.662,0.715,0.893c0.297,0.23,0.653,0.405,1.059,0.52
				c0.212,0.06,0.443,0.103,0.708,0.133l0.111,0.013v1.251c0,0.234,0.189,0.425,0.423,0.425c0.233,0,0.423-0.19,0.423-0.425v-1.242
				l0.113-0.01c0.282-0.026,0.513-0.063,0.727-0.116c0.381-0.094,0.727-0.244,1.026-0.447c0.295-0.2,0.538-0.462,0.718-0.776
				c0.18-0.312,0.271-0.696,0.271-1.144c0-0.207-0.032-0.416-0.094-0.622c-0.062-0.205-0.159-0.401-0.287-0.582
				c-0.128-0.179-0.29-0.342-0.482-0.483c-0.191-0.14-0.419-0.252-0.68-0.334c-0.105-0.03-0.286-0.079-0.539-0.146
				c-0.254-0.066-0.514-0.135-0.78-0.206c-0.266-0.07-0.507-0.135-0.722-0.195c-0.213-0.058-0.336-0.091-0.367-0.099
				c-0.317-0.092-0.577-0.229-0.775-0.41c-0.21-0.193-0.316-0.461-0.316-0.794c0-0.236,0.057-0.438,0.169-0.601
				c0.107-0.155,0.245-0.28,0.41-0.373c0.159-0.087,0.336-0.151,0.529-0.19c0.188-0.036,0.374-0.055,0.552-0.055
				c0.531,0,0.977,0.12,1.325,0.357c0.242,0.164,0.414,0.408,0.512,0.725c0.074,0.235,0.318,0.4,0.595,0.4
				c0.2,0,0.377-0.095,0.487-0.261c0.111-0.167,0.131-0.378,0.054-0.564c-0.021-0.051-0.044-0.102-0.07-0.15
				c-0.163-0.315-0.386-0.585-0.664-0.801c-0.278-0.216-0.607-0.381-0.979-0.49c-0.191-0.057-0.396-0.098-0.625-0.127l-0.109-0.014
				v-1.25c0-0.234-0.19-0.425-0.423-0.425c-0.234,0-0.423,0.19-0.423,0.425v1.244l-0.11,0.013c-0.214,0.025-0.408,0.062-0.592,0.111
				c-0.354,0.095-0.671,0.24-0.946,0.435c-0.272,0.192-0.495,0.438-0.661,0.729c-0.164,0.289-0.247,0.639-0.247,1.038
				c0,0.207,0.028,0.414,0.083,0.614c0.054,0.194,0.147,0.382,0.278,0.558c0.132,0.177,0.312,0.339,0.536,0.481
				c0.228,0.146,0.517,0.266,0.861,0.355c0.579,0.157,1.065,0.284,1.458,0.382c0.409,0.102,0.753,0.205,1.051,0.316
				c0.189,0.069,0.365,0.188,0.522,0.354c0.167,0.176,0.251,0.444,0.251,0.798c0,0.171-0.035,0.344-0.103,0.512
				c-0.071,0.173-0.186,0.325-0.34,0.454c-0.152,0.128-0.351,0.232-0.593,0.312c-0.236,0.078-0.526,0.118-0.859,0.118
				c-0.307,0-0.596-0.035-0.857-0.104c-0.27-0.07-0.511-0.185-0.717-0.338c-0.211-0.156-0.378-0.359-0.496-0.605
				c-0.072-0.15-0.12-0.333-0.149-0.575C9.235,158.039,8.99,157.785,8.656,157.785z"/>
		</g>
	</g>
	<g>
		<g>
			<path d="M58.281,167.719c-6.065,0-11-4.935-11-11s4.935-11,11-11s11,4.935,11,11S64.347,167.719,58.281,167.719z M58.281,147.719
				c-4.962,0-9,4.037-9,9s4.038,9,9,9s9-4.037,9-9S63.244,147.719,58.281,147.719z"/>
		</g>
		<g>
			<path d="M61.29,160.709c-0.255,0-0.51-0.097-0.705-0.291l-3.011-2.994c-0.188-0.188-0.295-0.442-0.295-0.708l-0.003-4.996
				c0-0.553,0.447-1.001,1-1.001h0c0.552,0,1,0.447,1,0.999l0.002,4.581L61.995,159c0.392,0.39,0.394,1.022,0.004,1.414
				C61.803,160.61,61.546,160.709,61.29,160.709z"/>
		</g>
	</g>
	<g>
		<text transform="matrix(1 0 0 1 426.2812 91.7183)" fill="#FFFFFF" font-family="'Helvetica-Bold'" font-size="2">Send Payment</text>
	</g>
	<g>
		<g>
			<g>
				<path d="M438.813,109.699h-7.035c-0.551,0-0.997-0.439-0.997-0.98s0.446-0.98,0.997-0.98h7.035c0.551,0,0.997,0.439,0.997,0.98
					S439.364,109.699,438.813,109.699z"/>
			</g>
			<g>
				<path d="M440.652,104.8h-5.276c-0.552,0-0.997-0.438-0.997-0.98c0-0.541,0.445-0.979,0.997-0.979h5.276
					c0.551,0,0.997,0.438,0.997,0.979C441.649,104.361,441.203,104.8,440.652,104.8z"/>
			</g>
			<g>
				<path d="M440.652,114.597h-5.276c-0.552,0-0.997-0.438-0.997-0.979c0-0.542,0.445-0.98,0.997-0.98h5.276
					c0.551,0,0.997,0.438,0.997,0.98C441.649,114.159,441.203,114.597,440.652,114.597z"/>
			</g>
			<g>
				<path d="M453.467,110.242c-0.094-0.303-0.236-0.586-0.43-0.851c-0.191-0.265-0.431-0.5-0.716-0.705
					c-0.286-0.205-0.621-0.367-1.005-0.485c-0.155-0.043-0.41-0.11-0.767-0.202c-0.357-0.092-0.724-0.187-1.096-0.284
					c-0.374-0.097-0.712-0.187-1.014-0.267c-0.302-0.081-0.476-0.127-0.52-0.138c-0.417-0.119-0.755-0.294-1.013-0.526
					c-0.259-0.232-0.388-0.553-0.388-0.964c0-0.292,0.069-0.534,0.206-0.729c0.138-0.194,0.311-0.348,0.519-0.462
					c0.209-0.113,0.439-0.194,0.692-0.243c0.253-0.048,0.5-0.072,0.741-0.072c0.715,0,1.303,0.154,1.764,0.462
					c0.308,0.205,0.525,0.507,0.651,0.907c0.133,0.416,0.56,0.672,1.002,0.672h0.004c0.718,0,1.195-0.722,0.919-1.374
					c-0.032-0.075-0.066-0.149-0.104-0.221c-0.243-0.459-0.569-0.846-0.98-1.158c-0.413-0.313-0.891-0.548-1.435-0.705
					c-0.291-0.084-0.595-0.141-0.906-0.18v-1.569c0-0.418-0.346-0.757-0.77-0.757c-0.426,0-0.771,0.338-0.771,0.757v1.56
					c-0.287,0.033-0.572,0.083-0.856,0.157c-0.517,0.135-0.978,0.343-1.385,0.624c-0.406,0.281-0.733,0.634-0.98,1.061
					c-0.247,0.427-0.37,0.931-0.37,1.514c0,0.303,0.041,0.6,0.123,0.892c0.083,0.291,0.223,0.566,0.42,0.826
					c0.198,0.259,0.465,0.494,0.8,0.704c0.335,0.211,0.756,0.381,1.261,0.51c0.812,0.216,1.496,0.392,2.052,0.526
					c0.555,0.135,1.04,0.278,1.458,0.429c0.241,0.086,0.465,0.235,0.668,0.445c0.202,0.21,0.305,0.537,0.305,0.98
					c0,0.216-0.044,0.429-0.133,0.639c-0.087,0.211-0.23,0.397-0.428,0.559c-0.198,0.162-0.456,0.294-0.774,0.396
					c-0.319,0.103-0.703,0.154-1.153,0.154c-0.418,0-0.806-0.045-1.162-0.138c-0.356-0.091-0.673-0.237-0.948-0.437
					c-0.274-0.2-0.488-0.456-0.643-0.769c-0.104-0.212-0.159-0.466-0.193-0.737c-0.051-0.613-0.473-1.028-1.032-1.028
					c-0.561,0-1.04,0.463-1.04,1.028c0.048,0.546,0.175,1.035,0.388,1.458c0.263,0.524,0.615,0.953,1.055,1.288
					s0.956,0.583,1.549,0.745c0.328,0.089,0.671,0.148,1.021,0.188v1.568c0,0.418,0.346,0.757,0.771,0.757
					c0.424,0,0.77-0.338,0.77-0.757v-1.553c0.353-0.032,0.702-0.08,1.047-0.163c0.56-0.135,1.06-0.348,1.499-0.64
					c0.439-0.292,0.794-0.666,1.063-1.125c0.269-0.459,0.403-1.012,0.403-1.66C453.606,110.846,453.56,110.543,453.467,110.242z"/>
				<path d="M448.824,117.219c-0.522,0-0.947-0.417-0.947-0.929v-1.417c-0.325-0.042-0.619-0.1-0.893-0.174
					c-0.613-0.168-1.154-0.429-1.609-0.775c-0.459-0.35-0.831-0.803-1.104-1.348c-0.22-0.434-0.355-0.944-0.405-1.519
					c-0.001-0.666,0.556-1.215,1.214-1.215c0.652,0,1.149,0.488,1.206,1.187c0.036,0.288,0.093,0.505,0.178,0.677
					c0.141,0.286,0.339,0.523,0.589,0.705c0.255,0.186,0.554,0.323,0.888,0.409c0.339,0.088,0.715,0.132,1.118,0.132
					c0.429,0,0.799-0.049,1.099-0.146c0.295-0.095,0.537-0.218,0.717-0.365c0.176-0.144,0.302-0.309,0.379-0.492
					c0.079-0.188,0.119-0.382,0.119-0.574c0-0.395-0.087-0.685-0.258-0.862c-0.183-0.189-0.384-0.325-0.601-0.402
					c-0.406-0.147-0.891-0.29-1.439-0.424c-0.557-0.135-1.24-0.311-2.056-0.527c-0.521-0.133-0.962-0.312-1.31-0.531
					c-0.352-0.221-0.636-0.472-0.845-0.746c-0.209-0.275-0.361-0.572-0.449-0.882c-0.085-0.306-0.129-0.622-0.129-0.938
					c0-0.611,0.132-1.149,0.393-1.599c0.26-0.446,0.606-0.821,1.031-1.116c0.422-0.291,0.906-0.509,1.441-0.649
					c0.229-0.06,0.468-0.106,0.726-0.142v-1.408c0-0.513,0.425-0.929,0.947-0.929c0.521,0,0.945,0.417,0.945,0.929v1.419
					c0.281,0.041,0.537,0.095,0.78,0.165c0.562,0.162,1.063,0.408,1.491,0.733c0.43,0.326,0.775,0.734,1.029,1.215
					c0.039,0.077,0.076,0.155,0.11,0.234c0.153,0.364,0.113,0.775-0.108,1.101c-0.218,0.32-0.581,0.512-0.973,0.512
					c-0.543,0-1.024-0.326-1.173-0.793c-0.115-0.364-0.306-0.631-0.582-0.815c-0.43-0.287-0.99-0.433-1.666-0.433
					c-0.229,0-0.467,0.023-0.708,0.069c-0.233,0.045-0.449,0.121-0.641,0.225c-0.184,0.101-0.339,0.238-0.459,0.409
					c-0.117,0.165-0.176,0.377-0.176,0.631c0,0.363,0.108,0.637,0.33,0.837c0.237,0.213,0.555,0.377,0.944,0.488
					c0.039,0.01,0.214,0.056,0.517,0.137c0.302,0.081,0.639,0.17,1.012,0.267c0.373,0.097,0.739,0.191,1.097,0.284
					s0.613,0.16,0.77,0.203c0.405,0.125,0.761,0.297,1.06,0.512c0.301,0.216,0.556,0.466,0.756,0.744
					c0.203,0.279,0.356,0.583,0.454,0.901c0.098,0.317,0.147,0.64,0.147,0.956c0,0.676-0.145,1.263-0.427,1.746
					c-0.281,0.479-0.657,0.877-1.116,1.182c-0.456,0.302-0.979,0.526-1.556,0.665c-0.277,0.067-0.572,0.116-0.913,0.152v1.397
					C449.77,116.802,449.345,117.219,448.824,117.219z M445.08,110.187c-0.468,0-0.864,0.392-0.864,0.856
					c0.046,0.517,0.17,0.986,0.369,1.381c0.25,0.498,0.588,0.911,1.005,1.229c0.418,0.319,0.92,0.559,1.488,0.715
					c0.299,0.082,0.624,0.142,0.995,0.184l0.154,0.017v1.722c0,0.323,0.268,0.585,0.597,0.585c0.327,0,0.595-0.262,0.595-0.585
					v-1.71l0.158-0.015c0.396-0.036,0.72-0.086,1.021-0.159c0.536-0.129,1.022-0.337,1.442-0.616
					c0.416-0.275,0.756-0.635,1.01-1.069c0.252-0.43,0.38-0.959,0.38-1.574c0-0.283-0.044-0.572-0.131-0.857
					c-0.088-0.282-0.224-0.551-0.404-0.8c-0.181-0.247-0.408-0.472-0.678-0.666c-0.269-0.192-0.59-0.348-0.954-0.46
					c-0.149-0.042-0.403-0.108-0.759-0.2c-0.357-0.092-0.723-0.186-1.096-0.284c-0.374-0.097-0.713-0.187-1.015-0.267
					c-0.301-0.081-0.474-0.126-0.518-0.137c-0.445-0.127-0.811-0.317-1.087-0.566c-0.295-0.265-0.445-0.632-0.445-1.091
					c0-0.325,0.08-0.603,0.238-0.827c0.151-0.214,0.345-0.388,0.578-0.514c0.223-0.122,0.473-0.21,0.742-0.262
					c0.265-0.05,0.524-0.076,0.775-0.076c0.747,0,1.374,0.166,1.862,0.492c0.34,0.226,0.582,0.562,0.721,0.998
					c0.104,0.324,0.445,0.551,0.834,0.551c0.282,0,0.531-0.13,0.686-0.358c0.156-0.23,0.185-0.521,0.076-0.777
					c-0.03-0.071-0.063-0.141-0.099-0.209c-0.229-0.434-0.543-0.805-0.932-1.1c-0.394-0.299-0.856-0.526-1.377-0.676
					c-0.268-0.077-0.555-0.134-0.879-0.174l-0.152-0.019v-1.721c0-0.323-0.268-0.585-0.595-0.585c-0.329,0-0.597,0.262-0.597,0.585
					v1.712l-0.154,0.018c-0.302,0.036-0.574,0.085-0.833,0.153c-0.493,0.129-0.941,0.331-1.328,0.598
					c-0.383,0.265-0.695,0.603-0.929,1.005c-0.23,0.397-0.347,0.878-0.347,1.429c0,0.286,0.039,0.57,0.115,0.846
					c0.077,0.268,0.209,0.527,0.393,0.768c0.184,0.241,0.438,0.464,0.754,0.663c0.316,0.2,0.724,0.364,1.21,0.489
					c0.812,0.216,1.495,0.391,2.049,0.526c0.562,0.137,1.059,0.283,1.478,0.435c0.267,0.096,0.513,0.26,0.734,0.488
					c0.234,0.244,0.353,0.613,0.353,1.099c0,0.238-0.049,0.475-0.146,0.705c-0.098,0.235-0.258,0.445-0.479,0.625
					c-0.214,0.176-0.494,0.32-0.831,0.428c-0.335,0.107-0.742,0.163-1.208,0.163c-0.434,0-0.84-0.048-1.206-0.144
					c-0.377-0.097-0.717-0.253-1.008-0.465c-0.296-0.215-0.531-0.495-0.696-0.833c-0.102-0.207-0.169-0.458-0.209-0.791
					C445.896,110.536,445.551,110.187,445.08,110.187z"/>
			</g>
		</g>
	</g>
	<g>
		<text transform="matrix(1 0 0 1 90.3018 139.7188)" fill="#FFFFFF" font-family="'Helvetica-Bold'" font-size="2">Edit Option 1</text>
	</g>
	<g>
		<text transform="matrix(1 0 0 1 138.2812 139.7188)" fill="#FFFFFF" font-family="'Helvetica-Bold'" font-size="2">Edit Option 2</text>
	</g>
	<g>
		<text transform="matrix(1 0 0 1 186.2812 139.7188)" fill="#FFFFFF" font-family="'Helvetica-Bold'" font-size="2">Rewards</text>
	</g>
	<g>
		<g>
			<g>
				<path d="M100.541,166.729l-4.253-4.259l15.153-15.171c0.757-0.759,2.076-0.759,2.833-0.001l1.42,1.422
					c0.378,0.379,0.587,0.882,0.587,1.419c0,0.536-0.208,1.039-0.586,1.419L100.541,166.729z M99.116,162.471l1.425,1.428
					l13.739-13.756l-1.42-1.428L99.116,162.471z"/>
			</g>
			<g>
				<polygon points="100.543,166.73 96.281,166.73 96.281,162.469 				"/>
			</g>
		</g>
	</g>
	<g>
		<g>
			<g>
				<path d="M148.541,166.729l-4.253-4.259l15.153-15.171c0.757-0.759,2.076-0.759,2.833-0.001l1.42,1.422
					c0.378,0.379,0.587,0.882,0.587,1.419c0,0.536-0.208,1.039-0.586,1.419L148.541,166.729z M147.116,162.471l1.425,1.428
					l13.739-13.756l-1.42-1.428L147.116,162.471z"/>
			</g>
			<g>
				<polygon points="148.543,166.73 144.281,166.73 144.281,162.469 				"/>
			</g>
		</g>
		<g>
			<rect x="147.281" y="164.729" width="17" height="2.002"/>
		</g>
	</g>
	<g>
		<g>
			<g>
				<g>
					<path d="M198.675,168.219c-0.336,0-0.652-0.171-0.833-0.456l-1.55-2.431l-2.858,0.484c-0.358,0.061-0.722-0.08-0.945-0.365
						c-0.223-0.284-0.27-0.668-0.122-0.997l3.611-8.048c0.222-0.493,0.806-0.717,1.303-0.495c0.498,0.22,0.721,0.798,0.5,1.292
						l-2.862,6.377l1.689-0.287c0.39-0.069,0.786,0.107,1,0.442l0.916,1.436l2.861-6.376c0.222-0.493,0.806-0.718,1.303-0.495
						c0.498,0.22,0.721,0.798,0.5,1.292l-3.611,8.046c-0.148,0.329-0.467,0.552-0.83,0.578
						C198.723,168.218,198.699,168.219,198.675,168.219z"/>
				</g>
				<g>
					<path d="M205.888,168.219c-0.024,0-0.048-0.001-0.071-0.003c-0.363-0.026-0.682-0.248-0.83-0.578l-3.611-8.048
						c-0.221-0.493,0.002-1.071,0.5-1.291c0.499-0.223,1.081,0.001,1.303,0.496l2.861,6.376l0.916-1.437
						c0.213-0.334,0.608-0.509,1-0.442l1.688,0.287l-2.861-6.378c-0.221-0.493,0.002-1.071,0.5-1.291
						c0.498-0.222,1.081,0.002,1.303,0.496l3.611,8.048c0.148,0.33,0.101,0.713-0.122,0.997c-0.223,0.285-0.585,0.427-0.945,0.365
						l-2.857-0.484l-1.549,2.431C206.54,168.048,206.225,168.219,205.888,168.219z"/>
				</g>
			</g>
			<g>
				<path d="M202.281,155.985c-2.992,0-5.425-2.416-5.425-5.384s2.434-5.383,5.425-5.383s5.425,2.415,5.425,5.383
					S205.273,155.985,202.281,155.985z M202.281,147.177c-1.903,0-3.453,1.536-3.453,3.425s1.549,3.426,3.453,3.426
					s3.453-1.537,3.453-3.426S204.185,147.177,202.281,147.177z"/>
			</g>
		</g>
	</g>
	<g>
		<text transform="matrix(1 0 0 1 234.2832 139.7188)" fill="#FFFFFF" font-family="'Helvetica-Bold'" font-size="2">Request Money Option 2</text>
	</g>
	<g>
		<g>
			<path d="M249.304,168.219c-0.473,0-0.929-0.142-1.323-0.409c-1.85-1.265-3.497-2.081-4.195-2.081l-3.892-0.12
				c-0.626-0.022-1.112-0.545-1.112-1.188v-5.015c0-0.655,0.513-1.188,1.145-1.188h0.766c0.086,0,0.172-0.013,0.254-0.037
				c1.119-0.327,3.17-0.848,4.467-0.677c0.41,0.02,2.22,0.23,4.848,2.365c0.323,0.263,0.723,0.435,1.152,0.497l3.464,0.507
				c0.342,0.051,0.656,0.188,0.922,0.39l2.131-2.177c0.768-0.785,1.969-0.896,2.858-0.27c0.515,0.361,0.866,0.935,0.966,1.57
				c0.099,0.639-0.062,1.3-0.441,1.812l-3.765,5.072c-0.336,0.464-0.855,0.744-1.423,0.761l-6.755,0.187
				C249.348,168.218,249.325,168.219,249.304,168.219z M243.812,163.979c1.346,0,3.521,1.289,5.104,2.371
				c0.122,0.083,0.276,0.141,0.407,0.118l6.755-0.187c0.044-0.001,0.088-0.025,0.117-0.066l3.771-5.08
				c0.1-0.134,0.141-0.302,0.113-0.471c-0.026-0.166-0.113-0.31-0.246-0.403c-0.222-0.156-0.521-0.127-0.712,0.068l-2.484,2.537
				c0.029,0.543-0.143,1.084-0.48,1.501c-0.364,0.447-0.873,0.715-1.435,0.752l-4.184,0.278c-0.451,0.029-0.878-0.087-1.253-0.337
				l-3.488-2.321c-0.394-0.262-0.508-0.803-0.254-1.209c0.254-0.405,0.778-0.523,1.171-0.262l3.489,2.322
				c0.068,0.044,0.146,0.06,0.224,0.061l4.185-0.278c0.129-0.009,0.209-0.085,0.244-0.13c0.04-0.048,0.104-0.151,0.088-0.301
				c-0.002-0.015-0.005-0.03-0.008-0.045c-0.011-0.027-0.02-0.055-0.027-0.083c-0.053-0.111-0.151-0.192-0.271-0.21l-3.464-0.507
				c-0.725-0.105-1.403-0.4-1.962-0.854c-2.363-1.921-3.869-1.993-3.884-1.993l-0.107-0.009c-0.832-0.123-2.513,0.239-3.811,0.621
				c-0.233,0.068-0.475,0.104-0.719,0.104h-0.216v3.908L243.812,163.979C243.811,163.979,243.811,163.979,243.812,163.979z"/>
		</g>
		<g>
			<path d="M257.339,152.44c-0.063-0.218-0.162-0.422-0.294-0.612s-0.296-0.36-0.491-0.508s-0.426-0.265-0.689-0.35
				c-0.105-0.031-0.281-0.08-0.525-0.146c-0.244-0.066-0.495-0.135-0.752-0.205c-0.256-0.069-0.487-0.134-0.695-0.192
				c-0.206-0.059-0.324-0.091-0.355-0.099c-0.286-0.086-0.518-0.212-0.694-0.38c-0.177-0.167-0.265-0.398-0.265-0.694
				c0-0.21,0.046-0.385,0.141-0.524c0.093-0.14,0.213-0.251,0.355-0.333c0.143-0.081,0.302-0.14,0.475-0.175
				s0.342-0.053,0.508-0.053c0.49,0,0.893,0.111,1.21,0.333c0.211,0.147,0.36,0.365,0.446,0.653
				c0.091,0.299,0.384,0.484,0.688,0.484h0.002c0.493,0,0.819-0.521,0.631-0.99c-0.021-0.055-0.045-0.107-0.071-0.159
				c-0.166-0.331-0.391-0.608-0.673-0.834s-0.61-0.396-0.983-0.508c-0.199-0.061-0.406-0.102-0.622-0.13v-1.131
				c0-0.301-0.236-0.545-0.527-0.545s-0.528,0.244-0.528,0.545v1.124c-0.197,0.024-0.393,0.06-0.588,0.113
				c-0.354,0.098-0.671,0.247-0.949,0.449s-0.502,0.457-0.672,0.764c-0.169,0.308-0.254,0.671-0.254,1.092
				c0,0.218,0.027,0.432,0.085,0.642c0.055,0.21,0.151,0.408,0.287,0.595c0.137,0.187,0.319,0.356,0.549,0.508
				s0.518,0.274,0.864,0.367c0.557,0.156,1.026,0.282,1.406,0.38c0.381,0.097,0.714,0.2,1.001,0.309
				c0.165,0.062,0.317,0.169,0.458,0.321c0.139,0.151,0.208,0.387,0.208,0.706c0,0.155-0.029,0.309-0.09,0.461
				c-0.062,0.151-0.158,0.285-0.294,0.402c-0.136,0.116-0.312,0.212-0.531,0.285c-0.219,0.074-0.482,0.111-0.792,0.111
				c-0.285,0-0.551-0.033-0.796-0.1c-0.245-0.065-0.462-0.171-0.649-0.314c-0.188-0.145-0.336-0.329-0.441-0.555
				c-0.071-0.152-0.109-0.335-0.133-0.531c-0.034-0.441-0.323-0.74-0.707-0.74c-0.385,0-0.713,0.334-0.713,0.74
				c0.032,0.395,0.118,0.746,0.266,1.051c0.181,0.377,0.421,0.687,0.724,0.928c0.3,0.241,0.654,0.42,1.062,0.536
				c0.224,0.064,0.46,0.107,0.7,0.136v1.131c0,0.301,0.237,0.545,0.528,0.545s0.527-0.244,0.527-0.545v-1.119
				c0.242-0.023,0.482-0.059,0.718-0.118c0.385-0.097,0.728-0.25,1.029-0.461c0.301-0.21,0.544-0.479,0.729-0.811
				s0.277-0.729,0.277-1.196C257.436,152.876,257.402,152.658,257.339,152.44z"/>
			<path d="M254.155,157.468c-0.357,0-0.648-0.3-0.648-0.669v-1.021c-0.223-0.03-0.425-0.071-0.612-0.126
				c-0.422-0.12-0.793-0.308-1.104-0.558c-0.314-0.251-0.57-0.578-0.758-0.971c-0.149-0.311-0.243-0.679-0.277-1.095
				c-0.001-0.479,0.381-0.875,0.833-0.875c0.447,0,0.787,0.352,0.828,0.854c0.023,0.207,0.062,0.363,0.12,0.486
				c0.095,0.206,0.231,0.377,0.405,0.51c0.176,0.135,0.38,0.233,0.607,0.294c0.234,0.063,0.492,0.096,0.766,0.096
				c0.295,0,0.549-0.035,0.754-0.105c0.203-0.067,0.369-0.155,0.492-0.263c0.121-0.104,0.206-0.22,0.26-0.354
				c0.054-0.137,0.081-0.272,0.081-0.414c0-0.285-0.06-0.494-0.175-0.621c-0.129-0.139-0.263-0.233-0.413-0.29
				c-0.285-0.107-0.617-0.21-0.987-0.305c-0.381-0.098-0.851-0.224-1.409-0.38c-0.356-0.096-0.658-0.225-0.897-0.383
				c-0.239-0.157-0.435-0.339-0.58-0.538s-0.249-0.413-0.307-0.636c-0.06-0.22-0.09-0.447-0.09-0.675
				c0-0.439,0.091-0.827,0.271-1.153c0.178-0.321,0.415-0.592,0.707-0.804c0.288-0.209,0.619-0.366,0.986-0.468
				c0.155-0.042,0.319-0.076,0.499-0.103v-1.015c0-0.369,0.291-0.669,0.648-0.669s0.647,0.3,0.647,0.669v1.022
				c0.195,0.03,0.372,0.069,0.536,0.119c0.386,0.116,0.729,0.294,1.022,0.529c0.296,0.235,0.534,0.53,0.706,0.875
				c0.027,0.054,0.053,0.11,0.076,0.169c0.105,0.261,0.076,0.558-0.074,0.792c-0.149,0.231-0.399,0.369-0.668,0.369
				c-0.372,0-0.702-0.235-0.805-0.571c-0.077-0.259-0.211-0.457-0.398-0.588c-0.296-0.207-0.681-0.312-1.143-0.312
				c-0.157,0-0.319,0.017-0.483,0.051c-0.161,0.032-0.31,0.087-0.441,0.161c-0.126,0.072-0.231,0.172-0.315,0.295
				c-0.08,0.119-0.118,0.268-0.118,0.454c0,0.263,0.073,0.459,0.225,0.603c0.161,0.153,0.381,0.272,0.648,0.353
				c0.025,0.007,0.145,0.039,0.354,0.099c0.206,0.058,0.438,0.122,0.692,0.191l0.753,0.205c0.245,0.066,0.422,0.115,0.527,0.146
				c0.276,0.089,0.52,0.213,0.728,0.368c0.203,0.153,0.378,0.334,0.519,0.536c0.139,0.202,0.243,0.421,0.311,0.648
				c0.067,0.229,0.101,0.46,0.101,0.689c0,0.485-0.098,0.909-0.293,1.258c-0.191,0.345-0.449,0.631-0.766,0.852
				c-0.312,0.218-0.67,0.379-1.067,0.479c-0.19,0.048-0.391,0.084-0.626,0.11v1.007
				C254.803,157.168,254.513,157.468,254.155,157.468z M251.589,152.401c-0.322,0-0.594,0.282-0.594,0.616
				c0.032,0.374,0.117,0.713,0.254,0.996c0.172,0.358,0.403,0.656,0.688,0.885c0.287,0.229,0.631,0.402,1.021,0.515
				c0.205,0.059,0.429,0.102,0.682,0.132l0.107,0.013v1.241c0,0.232,0.183,0.421,0.407,0.421c0.226,0,0.407-0.188,0.407-0.421
				v-1.232l0.109-0.01c0.271-0.026,0.493-0.063,0.7-0.115c0.369-0.093,0.702-0.242,0.99-0.443c0.285-0.199,0.518-0.458,0.692-0.77
				c0.172-0.312,0.26-0.693,0.26-1.135c0-0.204-0.03-0.412-0.091-0.617c-0.059-0.203-0.151-0.396-0.276-0.576
				c-0.125-0.181-0.281-0.342-0.465-0.479c-0.186-0.141-0.405-0.252-0.654-0.332c-0.102-0.03-0.276-0.079-0.52-0.144l-0.752-0.205
				c-0.257-0.069-0.489-0.134-0.696-0.193c-0.205-0.058-0.323-0.09-0.354-0.098c-0.308-0.093-0.558-0.229-0.746-0.409
				c-0.202-0.189-0.305-0.454-0.305-0.785c0-0.235,0.056-0.437,0.163-0.596c0.103-0.154,0.236-0.278,0.395-0.37
				c0.155-0.087,0.326-0.15,0.511-0.188c0.181-0.036,0.359-0.055,0.531-0.055c0.512,0,0.941,0.119,1.276,0.354
				c0.235,0.163,0.4,0.405,0.494,0.72c0.071,0.233,0.307,0.396,0.573,0.396c0.192,0,0.363-0.094,0.471-0.259
				c0.106-0.165,0.126-0.375,0.052-0.56c-0.021-0.052-0.043-0.101-0.067-0.149c-0.157-0.312-0.372-0.58-0.641-0.794
				c-0.27-0.216-0.586-0.379-0.942-0.486c-0.182-0.056-0.379-0.097-0.604-0.126l-0.105-0.014v-1.24c0-0.232-0.182-0.421-0.407-0.421
				c-0.225,0-0.407,0.188-0.407,0.421v1.234l-0.107,0.013c-0.209,0.026-0.396,0.062-0.57,0.11c-0.341,0.094-0.646,0.238-0.911,0.431
				c-0.263,0.19-0.477,0.434-0.637,0.724c-0.158,0.287-0.239,0.635-0.239,1.03c0,0.205,0.027,0.41,0.081,0.608
				c0.052,0.193,0.142,0.379,0.269,0.554c0.128,0.175,0.301,0.336,0.517,0.478c0.219,0.145,0.498,0.263,0.83,0.352
				c0.557,0.156,1.025,0.282,1.405,0.38c0.378,0.096,0.719,0.201,1.013,0.312c0.183,0.068,0.353,0.188,0.504,0.353
				c0.159,0.174,0.24,0.44,0.24,0.791c0,0.172-0.032,0.343-0.099,0.508c-0.066,0.17-0.178,0.321-0.328,0.451
				c-0.147,0.126-0.34,0.23-0.57,0.308c-0.229,0.077-0.508,0.117-0.829,0.117c-0.294,0-0.572-0.035-0.826-0.104
				c-0.257-0.069-0.49-0.182-0.69-0.335c-0.205-0.157-0.366-0.359-0.478-0.601c-0.07-0.148-0.117-0.329-0.144-0.57
				C252.147,152.653,251.91,152.401,251.589,152.401z"/>
		</g>
	</g>
	<g>
		<text transform="matrix(1 0 0 1 282.2832 139.7188)" fill="#FFFFFF" font-family="'Helvetica-Bold'" font-size="2">Pay Bills Option 1</text>
	</g>
	<g>
		<text transform="matrix(1 0 0 1 330.2812 139.7188)" fill="#FFFFFF" font-family="'Helvetica-Bold'" font-size="2">Pay Bills Option 2</text>
	</g>
	<g>
		<text transform="matrix(1 0 0 1 378.2812 139.7188)" fill="#FFFFFF" font-family="'Helvetica-Bold'" font-size="2">Pay Bills Option 3</text>
	</g>
	<g>
		<g>
			<g>
				<g>
					<path d="M305.366,168.719h-14.17c-1.607,0-2.915-1.308-2.915-2.915v-18.17c0-1.607,1.308-2.915,2.915-2.915h14.17
						c1.607,0,2.915,1.308,2.915,2.915v18.17C308.281,167.411,306.974,168.719,305.366,168.719z M291.196,146.719
						c-0.505,0-0.915,0.41-0.915,0.915v18.17c0,0.505,0.41,0.915,0.915,0.915h14.17c0.505,0,0.915-0.41,0.915-0.915v-18.17
						c0-0.505-0.41-0.915-0.915-0.915H291.196z"/>
				</g>
				<g>
					<path d="M303.281,151.719h-10c-0.553,0-1-0.447-1-1s0.447-1,1-1h10c0.553,0,1,0.447,1,1S303.834,151.719,303.281,151.719z"/>
				</g>
				<g>
					<path d="M298.281,156.719h-5c-0.553,0-1-0.447-1-1s0.447-1,1-1h5c0.553,0,1,0.447,1,1S298.834,156.719,298.281,156.719z"/>
				</g>
			</g>
			<g>
				<path d="M297.729,164.719c-0.256,0-0.511-0.098-0.706-0.292l-2.447-2.44c-0.392-0.39-0.392-1.023-0.002-1.414
					c0.391-0.392,1.023-0.391,1.414-0.002l1.74,1.735l4.847-4.847c0.391-0.391,1.023-0.391,1.414,0s0.391,1.023,0,1.414
					l-5.553,5.553C298.24,164.621,297.984,164.719,297.729,164.719z"/>
			</g>
		</g>
	</g>
	<g>
		<g>
			<path d="M353.366,168.719h-14.17c-1.607,0-2.915-1.308-2.915-2.915v-18.17c0-1.607,1.308-2.915,2.915-2.915h14.17
				c1.607,0,2.915,1.308,2.915,2.915v18.17C356.281,167.411,354.974,168.719,353.366,168.719z M339.196,146.719
				c-0.505,0-0.915,0.41-0.915,0.915v18.17c0,0.505,0.41,0.915,0.915,0.915h14.17c0.505,0,0.915-0.41,0.915-0.915v-18.17
				c0-0.505-0.41-0.915-0.915-0.915H339.196z"/>
		</g>
		<g>
			<path d="M351.281,151.719h-10c-0.553,0-1-0.447-1-1s0.447-1,1-1h10c0.553,0,1,0.447,1,1S351.834,151.719,351.281,151.719z"/>
		</g>
		<g>
			<path d="M344.281,156.719h-3c-0.553,0-1-0.447-1-1s0.447-1,1-1h3c0.553,0,1,0.447,1,1S344.834,156.719,344.281,156.719z"/>
		</g>
		<g>
			<path d="M344.281,161.719h-3c-0.553,0-1-0.447-1-1s0.447-1,1-1h3c0.553,0,1,0.447,1,1S344.834,161.719,344.281,161.719z"/>
		</g>
		<g>
			<path d="M352.343,160.633c-0.055-0.182-0.139-0.352-0.253-0.511c-0.113-0.158-0.254-0.3-0.423-0.423
				c-0.168-0.123-0.366-0.221-0.593-0.291c-0.091-0.026-0.241-0.067-0.452-0.122s-0.427-0.111-0.646-0.17
				c-0.221-0.059-0.42-0.112-0.599-0.161c-0.178-0.048-0.28-0.076-0.306-0.082c-0.246-0.071-0.446-0.177-0.599-0.316
				c-0.152-0.139-0.228-0.332-0.228-0.578c0-0.175,0.04-0.321,0.121-0.438c0.081-0.117,0.184-0.209,0.307-0.277
				s0.259-0.117,0.408-0.146c0.148-0.029,0.295-0.044,0.438-0.044c0.421,0,0.768,0.092,1.04,0.277
				c0.182,0.123,0.31,0.305,0.385,0.544c0.078,0.25,0.33,0.403,0.591,0.403h0.002c0.424,0,0.705-0.434,0.543-0.824
				c-0.019-0.046-0.039-0.09-0.062-0.133c-0.143-0.275-0.336-0.508-0.579-0.695c-0.243-0.188-0.524-0.329-0.846-0.423
				c-0.172-0.051-0.351-0.085-0.535-0.108v-0.942c0-0.251-0.203-0.454-0.454-0.454s-0.454,0.203-0.454,0.454v0.937
				c-0.17,0.021-0.339,0.05-0.506,0.095c-0.305,0.081-0.577,0.205-0.817,0.374c-0.239,0.169-0.432,0.381-0.578,0.637
				c-0.146,0.256-0.219,0.56-0.219,0.909c0,0.182,0.024,0.359,0.073,0.535c0.049,0.175,0.131,0.34,0.248,0.496
				c0.116,0.155,0.273,0.296,0.472,0.423c0.197,0.126,0.445,0.229,0.743,0.306c0.479,0.13,0.884,0.235,1.211,0.316
				s0.614,0.167,0.86,0.258c0.143,0.052,0.273,0.141,0.394,0.268c0.12,0.126,0.18,0.322,0.18,0.588c0,0.13-0.025,0.258-0.077,0.384
				c-0.053,0.127-0.137,0.238-0.253,0.336c-0.117,0.097-0.27,0.177-0.457,0.238c-0.188,0.062-0.415,0.092-0.681,0.092
				c-0.247,0-0.475-0.027-0.686-0.082c-0.211-0.056-0.397-0.143-0.559-0.263c-0.162-0.12-0.289-0.274-0.38-0.462
				c-0.062-0.128-0.095-0.279-0.114-0.443c-0.03-0.368-0.278-0.616-0.609-0.616c-0.33,0-0.613,0.277-0.613,0.616
				c0.028,0.329,0.103,0.622,0.229,0.876c0.155,0.314,0.363,0.572,0.622,0.773c0.26,0.2,0.564,0.35,0.914,0.446
				c0.193,0.055,0.396,0.09,0.604,0.113v0.942c0,0.251,0.203,0.454,0.454,0.454s0.454-0.203,0.454-0.454v-0.933
				c0.208-0.02,0.415-0.049,0.618-0.099c0.33-0.081,0.625-0.209,0.885-0.384c0.259-0.175,0.468-0.4,0.627-0.676
				s0.238-0.607,0.238-0.996C352.426,160.996,352.398,160.814,352.343,160.633z"/>
			<path d="M349.604,164.844c-0.319,0-0.579-0.26-0.579-0.579v-0.832c-0.188-0.025-0.356-0.06-0.513-0.104
				c-0.361-0.1-0.684-0.257-0.956-0.468c-0.274-0.213-0.495-0.487-0.658-0.816c-0.13-0.262-0.211-0.572-0.241-0.921
				c0-0.412,0.338-0.752,0.738-0.752c0.396,0,0.698,0.301,0.734,0.731c0.02,0.167,0.053,0.296,0.102,0.399
				c0.082,0.168,0.196,0.308,0.342,0.415c0.146,0.109,0.32,0.19,0.517,0.242c0.414,0.107,0.959,0.103,1.295-0.008
				c0.171-0.056,0.311-0.128,0.417-0.216c0.101-0.084,0.172-0.179,0.217-0.287c0.045-0.109,0.067-0.223,0.067-0.336
				c0-0.231-0.049-0.4-0.146-0.502c-0.107-0.113-0.22-0.19-0.346-0.236c-0.24-0.089-0.525-0.174-0.848-0.254
				c-0.328-0.081-0.732-0.187-1.213-0.316c-0.308-0.08-0.569-0.188-0.778-0.321c-0.211-0.135-0.38-0.287-0.504-0.453
				c-0.125-0.167-0.216-0.348-0.269-0.538c-0.052-0.186-0.078-0.377-0.078-0.568c0-0.37,0.079-0.696,0.235-0.971
				c0.154-0.271,0.361-0.499,0.614-0.678c0.25-0.176,0.538-0.308,0.857-0.393c0.128-0.034,0.264-0.062,0.413-0.083v-0.827
				c0-0.319,0.26-0.579,0.579-0.579s0.579,0.26,0.579,0.579v0.834c0.161,0.024,0.308,0.057,0.445,0.097
				c0.334,0.098,0.633,0.247,0.887,0.444c0.257,0.197,0.463,0.445,0.614,0.736c0.023,0.046,0.046,0.094,0.066,0.144
				c0.093,0.224,0.067,0.478-0.066,0.68c-0.133,0.198-0.354,0.316-0.593,0.316c-0.33,0-0.622-0.202-0.712-0.491
				c-0.067-0.214-0.177-0.37-0.336-0.478c-0.249-0.17-0.575-0.256-0.97-0.256c-0.135,0-0.273,0.014-0.413,0.042
				c-0.136,0.025-0.26,0.069-0.372,0.132c-0.108,0.061-0.194,0.139-0.265,0.239c-0.065,0.094-0.099,0.217-0.099,0.366
				c0,0.213,0.062,0.371,0.187,0.485c0.138,0.126,0.322,0.224,0.55,0.289c0.01,0.002,0.061,0.016,0.145,0.039l0.158,0.042
				c0.179,0.049,0.378,0.103,0.599,0.161c0.22,0.059,0.435,0.115,0.646,0.17c0.213,0.056,0.364,0.097,0.456,0.123
				c0.24,0.075,0.452,0.179,0.632,0.311c0.177,0.129,0.328,0.28,0.45,0.45c0.121,0.17,0.213,0.354,0.271,0.548
				c0.059,0.191,0.088,0.387,0.088,0.581c0,0.409-0.086,0.766-0.255,1.059c-0.169,0.291-0.393,0.532-0.665,0.717
				c-0.271,0.183-0.582,0.317-0.925,0.401c-0.16,0.039-0.328,0.068-0.523,0.091v0.819
				C350.183,164.584,349.923,164.844,349.604,164.844z M347.395,160.622c-0.265,0-0.488,0.225-0.488,0.491
				c0.027,0.307,0.1,0.587,0.216,0.82c0.146,0.295,0.343,0.541,0.587,0.73c0.246,0.19,0.539,0.333,0.87,0.425
				c0.173,0.049,0.364,0.084,0.584,0.109l0.111,0.013v1.054c0,0.182,0.147,0.329,0.329,0.329s0.329-0.147,0.329-0.329v-1.047
				l0.113-0.01c0.232-0.022,0.423-0.053,0.601-0.096c0.313-0.077,0.598-0.2,0.845-0.366c0.241-0.163,0.438-0.377,0.588-0.635
				c0.147-0.254,0.222-0.568,0.222-0.934c0-0.169-0.026-0.341-0.077-0.509s-0.13-0.327-0.235-0.474
				c-0.106-0.148-0.239-0.281-0.395-0.396c-0.157-0.115-0.345-0.206-0.557-0.272c-0.088-0.025-0.237-0.066-0.446-0.12
				c-0.211-0.055-0.428-0.111-0.647-0.17c-0.221-0.059-0.42-0.112-0.6-0.162l-0.158-0.042c-0.079-0.021-0.126-0.034-0.143-0.038
				c-0.271-0.079-0.489-0.194-0.654-0.347c-0.179-0.161-0.269-0.387-0.269-0.67c0-0.201,0.048-0.372,0.144-0.509
				c0.091-0.131,0.208-0.237,0.349-0.315c0.135-0.075,0.285-0.129,0.445-0.159c0.155-0.03,0.311-0.046,0.461-0.046
				c0.445,0,0.819,0.101,1.11,0.299c0.204,0.139,0.35,0.344,0.434,0.61c0.059,0.186,0.252,0.315,0.472,0.315
				c0.159,0,0.299-0.075,0.387-0.206c0.088-0.132,0.104-0.298,0.043-0.445c-0.018-0.043-0.036-0.083-0.057-0.123
				c-0.135-0.259-0.317-0.479-0.545-0.654c-0.229-0.178-0.5-0.312-0.805-0.401c-0.155-0.046-0.324-0.08-0.516-0.104l-0.109-0.014
				v-1.053c0-0.182-0.147-0.329-0.329-0.329s-0.329,0.147-0.329,0.329v1.047l-0.11,0.014c-0.182,0.022-0.341,0.052-0.488,0.092
				c-0.291,0.077-0.552,0.196-0.777,0.355c-0.223,0.157-0.405,0.357-0.542,0.597c-0.134,0.235-0.202,0.521-0.202,0.847
				c0,0.169,0.023,0.338,0.068,0.502c0.045,0.159,0.121,0.312,0.228,0.454c0.106,0.143,0.254,0.274,0.439,0.393
				c0.187,0.119,0.425,0.217,0.707,0.29c0.479,0.13,0.884,0.235,1.21,0.316c0.331,0.082,0.625,0.17,0.873,0.262
				c0.16,0.058,0.309,0.158,0.441,0.299c0.142,0.148,0.214,0.376,0.214,0.674c0,0.146-0.029,0.292-0.087,0.432
				c-0.06,0.145-0.156,0.273-0.288,0.384c-0.131,0.108-0.298,0.195-0.498,0.262c-0.381,0.124-0.978,0.131-1.437,0.012
				c-0.228-0.061-0.431-0.155-0.603-0.283c-0.177-0.132-0.317-0.303-0.417-0.508c-0.062-0.129-0.103-0.282-0.126-0.483
				C347.854,160.823,347.66,160.622,347.395,160.622z"/>
		</g>
	</g>
	<g>
		<g>
			<g>
				<path d="M401.366,168.719h-14.17c-1.607,0-2.915-1.308-2.915-2.915v-18.17c0-1.607,1.308-2.915,2.915-2.915h14.17
					c1.607,0,2.915,1.308,2.915,2.915v18.17C404.281,167.411,402.974,168.719,401.366,168.719z M387.196,146.719
					c-0.505,0-0.915,0.41-0.915,0.915v18.17c0,0.505,0.41,0.915,0.915,0.915h14.17c0.505,0,0.915-0.41,0.915-0.915v-18.17
					c0-0.505-0.41-0.915-0.915-0.915H387.196z"/>
			</g>
			<g>
				<path d="M399.281,151.719h-10c-0.553,0-1-0.447-1-1s0.447-1,1-1h10c0.553,0,1,0.447,1,1S399.834,151.719,399.281,151.719z"/>
			</g>
			<g>
				<path d="M394.281,156.719h-5c-0.553,0-1-0.447-1-1s0.447-1,1-1h5c0.553,0,1,0.447,1,1S394.834,156.719,394.281,156.719z"/>
			</g>
		</g>
		<g>
			<path d="M400.215,161.45c-0.044-0.146-0.111-0.281-0.202-0.408c-0.091-0.128-0.203-0.24-0.338-0.339s-0.293-0.176-0.475-0.233
				c-0.073-0.021-0.193-0.053-0.362-0.097c-0.168-0.044-0.341-0.09-0.517-0.137c-0.177-0.047-0.336-0.089-0.479-0.128
				s-0.225-0.062-0.245-0.066c-0.197-0.057-0.356-0.142-0.479-0.253s-0.183-0.266-0.183-0.463c0-0.14,0.032-0.257,0.098-0.35
				c0.064-0.094,0.146-0.167,0.245-0.222c0.098-0.055,0.207-0.094,0.326-0.117c0.119-0.022,0.236-0.035,0.35-0.035
				c0.338,0,0.615,0.074,0.833,0.223c0.145,0.098,0.247,0.243,0.308,0.436c0.062,0.199,0.264,0.322,0.473,0.322h0.002
				c0.339,0,0.563-0.347,0.434-0.66c-0.015-0.036-0.031-0.071-0.049-0.105c-0.114-0.221-0.269-0.406-0.463-0.557
				c-0.195-0.15-0.421-0.264-0.678-0.339c-0.137-0.04-0.28-0.067-0.428-0.086v-0.754c0-0.2-0.162-0.363-0.363-0.363
				s-0.363,0.163-0.363,0.363v0.749c-0.136,0.017-0.271,0.04-0.404,0.076c-0.244,0.064-0.462,0.164-0.654,0.299
				c-0.191,0.136-0.346,0.305-0.463,0.51c-0.116,0.205-0.175,0.447-0.175,0.728c0,0.146,0.02,0.287,0.059,0.428
				c0.039,0.14,0.105,0.272,0.198,0.396c0.094,0.125,0.22,0.237,0.377,0.338c0.158,0.102,0.357,0.184,0.596,0.246
				c0.384,0.104,0.706,0.188,0.969,0.252c0.262,0.065,0.491,0.134,0.688,0.206c0.114,0.042,0.22,0.113,0.315,0.215
				c0.096,0.101,0.144,0.258,0.144,0.47c0,0.104-0.021,0.206-0.062,0.308c-0.042,0.102-0.109,0.19-0.202,0.269
				c-0.094,0.077-0.216,0.142-0.366,0.19s-0.332,0.073-0.544,0.073c-0.197,0-0.38-0.021-0.549-0.065s-0.317-0.114-0.447-0.21
				s-0.23-0.219-0.304-0.369c-0.049-0.103-0.075-0.224-0.091-0.354c-0.024-0.295-0.224-0.494-0.487-0.494
				c-0.265,0-0.491,0.223-0.491,0.494c0.022,0.263,0.082,0.497,0.184,0.7c0.124,0.252,0.29,0.458,0.497,0.618
				c0.208,0.161,0.451,0.28,0.731,0.358c0.154,0.043,0.316,0.071,0.482,0.09v0.754c0,0.2,0.162,0.363,0.363,0.363
				s0.363-0.163,0.363-0.363v-0.746c0.167-0.016,0.332-0.039,0.494-0.079c0.265-0.064,0.501-0.167,0.708-0.307
				c0.208-0.141,0.375-0.32,0.502-0.541c0.127-0.22,0.19-0.486,0.19-0.797C400.281,161.74,400.26,161.595,400.215,161.45z"/>
			<path d="M398.023,164.818c-0.256,0-0.463-0.207-0.463-0.463v-0.665c-0.149-0.021-0.284-0.048-0.409-0.082
				c-0.292-0.081-0.549-0.208-0.767-0.376c-0.219-0.169-0.396-0.389-0.525-0.653c-0.104-0.209-0.17-0.456-0.193-0.735
				c0-0.331,0.271-0.603,0.591-0.603c0.317,0,0.559,0.24,0.587,0.586c0.017,0.134,0.042,0.236,0.081,0.319
				c0.067,0.137,0.156,0.245,0.273,0.332c0.12,0.088,0.259,0.153,0.413,0.193c0.327,0.085,0.767,0.081,1.036-0.006
				c0.136-0.045,0.248-0.103,0.334-0.173c0.08-0.068,0.138-0.144,0.173-0.229c0.036-0.09,0.055-0.178,0.055-0.27
				c0-0.185-0.039-0.32-0.116-0.4c-0.084-0.09-0.178-0.153-0.277-0.19c-0.188-0.069-0.417-0.138-0.678-0.203
				c-0.263-0.064-0.586-0.148-0.971-0.252c-0.247-0.065-0.457-0.152-0.623-0.259c-0.168-0.107-0.304-0.229-0.403-0.362
				s-0.172-0.277-0.215-0.429c-0.042-0.151-0.062-0.3-0.062-0.455c0-0.296,0.062-0.557,0.188-0.776
				c0.123-0.216,0.288-0.398,0.492-0.543c0.201-0.141,0.433-0.246,0.687-0.313c0.102-0.027,0.21-0.05,0.33-0.067v-0.661
				c0-0.256,0.207-0.463,0.463-0.463s0.463,0.207,0.463,0.463v0.667c0.129,0.02,0.246,0.045,0.356,0.077
				c0.267,0.078,0.505,0.197,0.71,0.355c0.206,0.158,0.371,0.357,0.491,0.59c0.019,0.037,0.037,0.075,0.053,0.114
				c0.074,0.179,0.055,0.383-0.054,0.544c-0.105,0.159-0.282,0.253-0.473,0.253c-0.264,0-0.497-0.161-0.57-0.392
				c-0.054-0.173-0.142-0.298-0.268-0.383c-0.266-0.182-0.63-0.262-1.108-0.172c-0.108,0.021-0.208,0.057-0.296,0.105
				c-0.087,0.049-0.156,0.111-0.212,0.191c-0.053,0.075-0.08,0.174-0.08,0.293c0,0.17,0.05,0.297,0.15,0.389
				c0.111,0.102,0.259,0.18,0.438,0.231c0.017,0.003,0.1,0.026,0.244,0.065c0.123,0.034,0.259,0.07,0.407,0.109l0.587,0.155
				c0.17,0.044,0.29,0.076,0.364,0.097c0.195,0.062,0.365,0.146,0.506,0.249c0.144,0.105,0.265,0.227,0.36,0.362
				c0.098,0.135,0.17,0.282,0.217,0.437c0.047,0.151,0.07,0.308,0.07,0.465c0,0.328-0.068,0.613-0.203,0.847
				c-0.134,0.232-0.313,0.426-0.533,0.574c-0.216,0.146-0.465,0.254-0.74,0.32c-0.127,0.032-0.262,0.055-0.418,0.072v0.656
				C398.486,164.611,398.279,164.818,398.023,164.818z M396.257,161.44c-0.212,0-0.392,0.181-0.392,0.395
				c0.021,0.245,0.08,0.469,0.174,0.655c0.116,0.237,0.274,0.434,0.469,0.584c0.196,0.152,0.431,0.267,0.696,0.341
				c0.141,0.039,0.293,0.067,0.467,0.087l0.089,0.01v0.844c0,0.146,0.118,0.264,0.264,0.264s0.264-0.118,0.264-0.264v-0.837
				l0.09-0.009c0.187-0.018,0.339-0.042,0.479-0.076c0.252-0.062,0.479-0.16,0.677-0.293s0.351-0.299,0.471-0.508
				c0.118-0.203,0.178-0.455,0.178-0.747c0-0.137-0.021-0.273-0.062-0.406c-0.04-0.134-0.104-0.262-0.188-0.379
				c-0.085-0.12-0.188-0.224-0.315-0.316c-0.124-0.091-0.274-0.165-0.446-0.219c-0.069-0.02-0.189-0.052-0.357-0.096l-0.588-0.155
				c-0.148-0.04-0.285-0.076-0.408-0.109c-0.141-0.039-0.222-0.061-0.242-0.065c-0.214-0.062-0.389-0.154-0.522-0.276
				c-0.143-0.131-0.215-0.312-0.215-0.537c0-0.161,0.039-0.298,0.115-0.407c0.071-0.104,0.166-0.188,0.278-0.252
				c0.106-0.059,0.226-0.102,0.355-0.127c0.131-0.025,0.255-0.037,0.369-0.037c0.356,0,0.655,0.08,0.89,0.239
				c0.162,0.11,0.279,0.274,0.347,0.488c0.046,0.148,0.201,0.253,0.377,0.253c0.127,0,0.239-0.061,0.309-0.164
				c0.07-0.106,0.084-0.24,0.034-0.358c-0.014-0.034-0.028-0.066-0.045-0.098c-0.106-0.207-0.253-0.383-0.436-0.523
				c-0.185-0.143-0.401-0.251-0.645-0.322c-0.124-0.036-0.259-0.063-0.412-0.082l-0.087-0.012v-0.842
				c0-0.146-0.118-0.264-0.264-0.264s-0.264,0.118-0.264,0.264v0.838l-0.088,0.011c-0.146,0.018-0.272,0.041-0.39,0.073
				c-0.231,0.061-0.441,0.156-0.623,0.284c-0.182,0.129-0.324,0.285-0.434,0.478c-0.107,0.189-0.162,0.417-0.162,0.678
				c0,0.137,0.019,0.268,0.056,0.401c0.035,0.127,0.097,0.249,0.182,0.363c0.085,0.113,0.203,0.219,0.351,0.313
				c0.148,0.095,0.339,0.174,0.567,0.233c0.384,0.104,0.705,0.188,0.967,0.252c0.269,0.066,0.503,0.137,0.698,0.209
				c0.13,0.048,0.249,0.128,0.354,0.24c0.112,0.119,0.17,0.3,0.17,0.538c0,0.117-0.022,0.23-0.068,0.345
				c-0.048,0.116-0.125,0.22-0.23,0.308s-0.24,0.157-0.399,0.209c-0.31,0.1-0.785,0.105-1.149,0.01
				c-0.179-0.047-0.341-0.122-0.481-0.227c-0.142-0.104-0.254-0.24-0.334-0.405c-0.05-0.104-0.081-0.227-0.101-0.387
				C396.625,161.603,396.469,161.44,396.257,161.44z"/>
		</g>
	</g>
	<text transform="matrix(1 0 0 1 426.2812 139.4385)" fill="#FFFFFF" font-family="'Helvetica-Bold'" font-size="2">Payment History Option 1</text>
	<g>
		<g>
			<circle cx="442.281" cy="160.719" r="1"/>
		</g>
		<g>
			<path d="M449.953,166.719h-15.344c-1.208,0-2.288-0.615-2.887-1.646c-0.584-1.004-0.589-2.206-0.015-3.216l7.672-13.467
				c0.597-1.046,1.681-1.671,2.901-1.671s2.305,0.625,2.901,1.671l7.672,13.467c0.574,1.01,0.569,2.212-0.015,3.216
				C452.241,166.104,451.161,166.719,449.953,166.719z M442.281,148.719c-0.492,0-0.928,0.247-1.163,0.661l-7.672,13.467
				c-0.222,0.389-0.22,0.833,0.005,1.22c0.237,0.408,0.67,0.652,1.158,0.652h15.344c0.488,0,0.921-0.244,1.158-0.652
				c0.225-0.387,0.227-0.831,0.005-1.22l-7.672-13.467C443.209,148.966,442.773,148.719,442.281,148.719z"/>
		</g>
		<g>
			<path d="M442.281,152.717c-0.592,0-1.055,0.467-0.995,1.004l0.445,4.449c0,0.303,0.245,0.549,0.549,0.549
				c0.303,0,0.549-0.246,0.549-0.549h0.002l0.445-4.449C443.336,153.184,442.873,152.717,442.281,152.717z"/>
		</g>
	</g>
	<text transform="matrix(1 0 0 1 -5.7183 187.4385)" fill="#FFFFFF" font-family="'Helvetica-Bold'" font-size="2">Withdrawl</text>
	<text transform="matrix(1 0 0 1 -5.7183 232.2715)" fill="#FFFFFF" font-family="'Helvetica-Bold'" font-size="2">Online</text>
	<text transform="matrix(1 0 0 1 42.2817 232.2715)" fill="#FFFFFF" font-family="'Helvetica-Bold'" font-size="2">ATM</text>
	<text transform="matrix(1 0 0 1 -5.7183 279.1055)" fill="#FFFFFF" font-family="'Helvetica-Bold'" font-size="2">Circle Button Red</text>
	<text transform="matrix(1 0 0 1 42.2817 279.1055)" fill="#FFFFFF" font-family="'Helvetica-Bold'" font-size="2">Circle Button Blue</text>
	<text transform="matrix(1 0 0 1 89.6978 279.1055)" fill="#FFFFFF" font-family="'Helvetica-Bold'" font-size="2">Radio Deselected</text>
	<text transform="matrix(1 0 0 1 138.1978 279.1055)" fill="#FFFFFF" font-family="'Helvetica-Bold'" font-size="2">Radio Selected</text>
	<text transform="matrix(1 0 0 1 90.3018 232.2715)" fill="#FFFFFF" font-family="'Helvetica-Bold'" font-size="2">Shield</text>
	<text transform="matrix(1 0 0 1 138.2817 232.2715)" fill="#FFFFFF" font-family="'Helvetica-Bold'" font-size="2">Arrow</text>
	<text transform="matrix(1 0 0 1 186.2817 232.2715)" fill="#FFFFFF" font-family="'Helvetica-Bold'" font-size="2">Lock</text>
	<text transform="matrix(1 0 0 1 234.2812 232.2715)" fill="#FFFFFF" font-family="'Helvetica-Bold'" font-size="2">Close</text>
	<text transform="matrix(1 0 0 1 282.2832 232.2715)" fill="#FFFFFF" font-family="'Helvetica-Bold'" font-size="2">Close</text>
	<text transform="matrix(1 0 0 1 330.2812 232.2715)" fill="#FFFFFF" font-family="'Helvetica-Bold'" font-size="2">Subtract</text>
	<text transform="matrix(1 0 0 1 378.2812 232.2715)" fill="#FFFFFF" font-family="'Helvetica-Bold'" font-size="2">Add</text>
	<text transform="matrix(1 0 0 1 426.2812 232.2715)" fill="#FFFFFF" font-family="'Helvetica-Bold'" font-size="2">Arrow</text>
	<text transform="matrix(1 0 0 1 42.2812 187.4385)" fill="#FFFFFF" font-family="'Helvetica-Bold'" font-size="2">Deposit</text>
	<text transform="matrix(1 0 0 1 90.2812 187.4385)" fill="#FFFFFF" font-family="'Helvetica-Bold'" font-size="2">Savings</text>
	<text transform="matrix(1 0 0 1 138.2812 187.4385)" fill="#FFFFFF" font-family="'Helvetica-Bold'" font-size="2">User Option 1</text>
	<text transform="matrix(1 0 0 1 186.2817 187.4385)" fill="#FFFFFF" font-family="'Helvetica-Bold'" font-size="2">Multiple People</text>
	<g>
		<path d="M101.421,200.787c-0.321,0-0.631-0.178-0.784-0.485c-0.215-0.433-0.039-0.958,0.394-1.173
			c2.537-1.261,5.463-1.371,8.062-0.296c0.447,0.185,0.659,0.696,0.474,1.144c-0.185,0.446-0.697,0.656-1.143,0.474
			c-2.135-0.883-4.528-0.793-6.613,0.245C101.686,200.758,101.553,200.787,101.421,200.787z"/>
	</g>
	<g>
		<circle cx="111.508" cy="201.384" r="1"/>
	</g>
	<g>
		<g>
			<g>
				<path d="M19.996,212.719H-1.2c-1.113,0-2.019-0.897-2.019-2v-12c0-1.103,0.905-2,2.019-2h17.159c0.557,0,1.009,0.447,1.009,1
					s-0.452,1-1.009,1H-1.2v12h21.196v-3c0-0.553,0.452-1,1.01-1c0.557,0,1.009,0.447,1.009,1v3
					C22.015,211.821,21.11,212.719,19.996,212.719z"/>
			</g>
			<g>
				<ellipse cx="9.398" cy="204.719" rx="3.028" ry="4.5"/>
			</g>
			<g>
				<g>
					<path d="M21.006,204.979c-0.194,0-0.388-0.073-0.536-0.22l-2.019-2c-0.296-0.293-0.296-0.768,0-1.061s0.775-0.293,1.07,0
						l1.484,1.47l1.483-1.47c0.295-0.293,0.774-0.293,1.07,0s0.296,0.768,0,1.061l-2.019,2
						C21.393,204.906,21.199,204.979,21.006,204.979z"/>
				</g>
				<g>
					<path d="M21.026,204.966c-0.418,0-0.757-0.336-0.757-0.75v-6.497c0-0.414,0.339-0.75,0.757-0.75s0.757,0.336,0.757,0.75v6.497
						C21.783,204.63,21.444,204.966,21.026,204.966z"/>
				</g>
			</g>
		</g>
	</g>
	<g>
		<g>
			<g>
				<path d="M67.996,212.719H46.8c-1.113,0-2.019-0.897-2.019-2v-12c0-1.103,0.905-2,2.019-2h17.159c0.557,0,1.009,0.447,1.009,1
					s-0.452,1-1.009,1H46.8v12h21.196v-3c0-0.553,0.452-1,1.01-1c0.557,0,1.009,0.447,1.009,1v3
					C70.015,211.821,69.11,212.719,67.996,212.719z"/>
			</g>
			<g>
				<ellipse cx="57.398" cy="204.719" rx="3.028" ry="4.5"/>
			</g>
			<g>
				<g>
					<path d="M71.024,200.469c-0.194,0-0.387-0.073-0.535-0.22l-1.483-1.47l-1.484,1.47c-0.295,0.293-0.774,0.293-1.07,0
						s-0.296-0.768,0-1.061l2.019-2c0.296-0.293,0.775-0.293,1.071,0l2.019,2c0.296,0.293,0.296,0.768,0,1.061
						C71.412,200.396,71.218,200.469,71.024,200.469z"/>
				</g>
				<g>
					<path d="M68.985,204.979c-0.418,0-0.757-0.336-0.757-0.75v-6.497c0-0.414,0.339-0.75,0.757-0.75s0.757,0.336,0.757,0.75v6.497
						C69.742,204.644,69.403,204.979,68.985,204.979z"/>
				</g>
			</g>
		</g>
	</g>
	<g>
		<g>
			<path d="M111.218,214.719h-3.166c-0.558,0-1.043-0.396-1.156-0.941l-0.102-0.495c-0.93,0.1-1.873,0.1-2.803,0l-0.102,0.494
				c-0.112,0.547-0.598,0.942-1.156,0.942h-3.166c-0.558,0-1.043-0.396-1.156-0.941l-0.595-2.901
				c-1.978-1.531-3.218-3.595-3.505-5.851c-0.063-0.741-0.01-1.844-0.008-1.89c0.577-4.829,5.341-8.417,11.089-8.417
				c2.15,0,3.792,0.325,5.282,1.05c0.521-0.091,1.972-0.499,3.16-0.874c0.332-0.101,0.694-0.028,0.957,0.199
				c0.263,0.229,0.388,0.577,0.33,0.921l-0.475,2.824c0.525,0.652,0.947,1.354,1.258,2.097l1.386,0.431
				c0.593,0.187,0.99,0.727,0.99,1.345v2.653c0,0.621-0.399,1.161-0.993,1.344l-1.383,0.432c-0.602,1.436-1.607,2.714-2.939,3.739
				l-0.593,2.897C112.262,214.323,111.776,214.719,111.218,214.719z M108.721,212.719h1.828l0.52-2.573
				c0.044-0.263,0.19-0.497,0.408-0.651c1.311-0.93,2.253-2.138,2.726-3.494c0.104-0.299,0.344-0.531,0.646-0.626l1.434-0.446
				v-1.781l-1.433-0.445c-0.303-0.095-0.542-0.327-0.647-0.626c-0.285-0.817-0.744-1.584-1.364-2.278
				c-0.202-0.227-0.291-0.532-0.24-0.832l0.285-1.693c-0.952,0.271-1.921,0.515-2.344,0.515c-0.16,0-0.412-0.053-0.554-0.126
				c-1.269-0.66-2.642-0.941-4.592-0.941c-4.736,0-8.647,2.831-9.097,6.585c-0.008,0.211-0.035,1.042,0.005,1.512
				c0.227,1.773,1.294,3.448,3,4.673c0.203,0.146,0.344,0.362,0.396,0.607l0.541,2.623h1.828l0.156-0.759
				c0.109-0.532,0.624-0.879,1.158-0.784c1.32,0.24,2.708,0.24,4.028,0c0.535-0.096,1.049,0.251,1.158,0.784L108.721,212.719z"/>
		</g>
	</g>
	<g>
		<g>
			<g>
				<path d="M154.281,204.888c-2.915,0-5.286-2.394-5.286-5.335s2.371-5.334,5.286-5.334s5.286,2.393,5.286,5.334
					S157.196,204.888,154.281,204.888z M154.281,196.237c-1.812,0-3.286,1.487-3.286,3.315s1.474,3.316,3.286,3.316
					s3.286-1.488,3.286-3.316S156.093,196.237,154.281,196.237z"/>
			</g>
			<g>
				<path d="M164.281,215.219c-0.552,0-1-0.451-1-1.009c0-1.901-3.779-4.721-9-4.721s-9,2.819-9,4.721c0,0.558-0.448,1.009-1,1.009
					s-1-0.451-1-1.009c0-3.527,5.243-6.739,11-6.739s11,3.212,11,6.739C165.281,214.768,164.833,215.219,164.281,215.219z"/>
			</g>
		</g>
	</g>
	<g>
		<g>
			<g>
				<g>
					<path d="M197.227,205.217c-1.957,0-3.548-1.57-3.548-3.5c0-1.929,1.592-3.498,3.548-3.498s3.548,1.569,3.548,3.498
						C200.775,203.646,199.184,205.217,197.227,205.217z M197.227,200.19c-0.854,0-1.548,0.686-1.548,1.526
						c0,0.843,0.694,1.527,1.548,1.527s1.548-0.685,1.548-1.527C198.775,200.876,198.081,200.19,197.227,200.19z"/>
				</g>
				<g>
					<path d="M203.173,211.219c-0.552,0-1-0.441-1-0.986c0-0.823-2.04-2.343-4.946-2.343c-2.906,0-4.946,1.52-4.946,2.343
						c0,0.545-0.448,0.986-1,0.986s-1-0.441-1-0.986c0-2.298,3.246-4.314,6.946-4.314s6.946,2.017,6.946,4.314
						C204.173,210.777,203.726,211.219,203.173,211.219z"/>
				</g>
			</g>
			<g>
				<g>
					<path d="M207.93,205.816c-1.816,0-3.293-1.457-3.293-3.247c0-1.791,1.478-3.248,3.293-3.248s3.293,1.457,3.293,3.248
						C211.223,204.359,209.746,205.816,207.93,205.816z M207.93,201.294c-0.713,0-1.293,0.571-1.293,1.275
						c0,0.703,0.58,1.275,1.293,1.275s1.293-0.572,1.293-1.275C209.223,201.865,208.643,201.294,207.93,201.294z"/>
				</g>
				<g>
					<path d="M213.281,211.219c-0.552,0-1-0.441-1-0.986c0-0.688-1.837-2.01-4.352-2.01c-0.504,0-1.006,0.053-1.49,0.155
						c-0.364,0.078-0.715,0.183-1.042,0.314c-0.513,0.201-1.095-0.042-1.302-0.547c-0.207-0.504,0.041-1.079,0.553-1.283
						c0.433-0.172,0.893-0.311,1.369-0.412c0.623-0.132,1.266-0.199,1.912-0.199c3.384,0,6.352,1.86,6.352,3.981
						C214.281,210.777,213.833,211.219,213.281,211.219z"/>
				</g>
			</g>
		</g>
	</g>
	<text transform="matrix(1 0 0 1 234.2812 187.4385)" fill="#FFFFFF" font-family="'Helvetica-Bold'" font-size="2">Address Book</text>
	<text transform="matrix(1 0 0 1 282.2812 187.4385)" fill="#FFFFFF" font-family="'Helvetica-Bold'" font-size="2">Mail</text>
	<text transform="matrix(1 0 0 1 330.2812 187.4385)" fill="#FFFFFF" font-family="'Helvetica-Bold'" font-size="2">College</text>
	<text transform="matrix(1 0 0 1 426.2812 187.4385)" fill="#FFFFFF" font-family="'Helvetica-Bold'" font-size="2">Small business</text>
	<text transform="matrix(1 0 0 1 378.2812 187.4385)" fill="#FFFFFF" font-family="'Helvetica-Bold'" font-size="2">Investments</text>
	<g>
		<g>
			<path d="M257.805,216.719h-13.889c-1.641,0-2.976-1.346-2.976-3v-18c0-1.654,1.335-3,2.976-3h13.889c1.642,0,2.977,1.346,2.977,3
				v18C260.781,215.373,259.446,216.719,257.805,216.719z M243.916,194.719c-0.547,0-0.992,0.448-0.992,1v18
				c0,0.552,0.445,1,0.992,1h13.889c0.548,0,0.992-0.448,0.992-1v-18c0-0.552-0.444-1-0.992-1H243.916z"/>
		</g>
		<g>
			<path d="M254.829,203.719h-7.937c-0.549,0-0.992-0.447-0.992-1v-5c0-0.553,0.443-1,0.992-1h7.937c0.548,0,0.992,0.447,0.992,1v5
				C255.821,203.271,255.377,203.719,254.829,203.719z M247.885,201.719h5.952v-3h-5.952V201.719z"/>
		</g>
		<g>
			<path d="M242.758,199.719h-1.984c-0.549,0-0.992-0.447-0.992-1s0.443-1,0.992-1h1.984c0.548,0,0.991,0.447,0.991,1
				S243.306,199.719,242.758,199.719z"/>
		</g>
		<g>
			<path d="M242.758,205.719h-1.984c-0.549,0-0.992-0.447-0.992-1s0.443-1,0.992-1h1.984c0.548,0,0.991,0.447,0.991,1
				S243.306,205.719,242.758,205.719z"/>
		</g>
		<g>
			<path d="M242.758,211.719h-1.984c-0.549,0-0.992-0.447-0.992-1s0.443-1,0.992-1h1.984c0.548,0,0.991,0.447,0.991,1
				S243.306,211.719,242.758,211.719z"/>
		</g>
	</g>
	<g>
		<g>
			<g>
				<path d="M306.281,212.719h-16c-1.103,0-2-0.897-2-2v-12c0-1.103,0.897-2,2-2h16c1.103,0,2,0.897,2,2v12
					C308.281,211.821,307.384,212.719,306.281,212.719z M290.281,198.719v12h16.002l-0.002-12H290.281z"/>
			</g>
			<g>
				<path d="M298.281,205.719c-0.193,0-0.387-0.056-0.555-0.168l-5.013-3.34c-0.459-0.306-0.584-0.927-0.277-1.387
					c0.306-0.46,0.925-0.583,1.387-0.277l4.456,2.969l4.441-2.983c0.458-0.31,1.079-0.186,1.388,0.272
					c0.308,0.459,0.186,1.08-0.272,1.388l-4.997,3.356C298.67,205.662,298.476,205.719,298.281,205.719z"/>
			</g>
		</g>
	</g>
	<g>
		
			<path fill-rule="evenodd" clip-rule="evenodd" fill="none" stroke="#000000" stroke-width="1.75" stroke-linecap="round" stroke-linejoin="round" stroke-miterlimit="10" d="
			M385.322,58.668"/>
	</g>
	<g>
		<g>
			<path d="M346.281,206.67c-0.132,0-0.264-0.027-0.388-0.08l-11-4.708c-0.371-0.159-0.612-0.528-0.612-0.938
				s0.241-0.778,0.612-0.938l11-4.709c0.248-0.105,0.527-0.105,0.775,0l11,4.709c0.371,0.159,0.612,0.528,0.612,0.938
				s-0.241,0.778-0.612,0.938l-3.884,1.662c-0.508,0.215-1.095-0.024-1.31-0.544c-0.214-0.518,0.025-1.114,0.534-1.332l1.693-0.724
				l-8.422-3.605l-8.422,3.605l8.422,3.604l0.918-0.394c0.504-0.213,1.095,0.024,1.31,0.544c0.214,0.518-0.024,1.113-0.534,1.332
				l-1.306,0.559C346.545,206.643,346.413,206.67,346.281,206.67z"/>
		</g>
		<g>
			<path d="M346.281,214.219c-4.605,0-9.5-1.635-9.5-4.663v-3.927c0-0.562,0.447-1.018,1-1.018s1,0.455,1,1.018v3.927
				c0,1.046,2.991,2.629,7.5,2.629s7.5-1.583,7.5-2.629v-3.927c0-0.562,0.447-1.018,1-1.018s1,0.455,1,1.018v3.927
				C355.781,212.584,350.887,214.219,346.281,214.219z"/>
		</g>
		<g>
			<path d="M350.482,208.118c-0.483,0-0.875-0.398-0.875-0.891v-4.261l-3.459-1.451c-0.446-0.187-0.659-0.707-0.475-1.162
				c0.183-0.454,0.695-0.67,1.143-0.482l4,1.677c0.327,0.138,0.541,0.462,0.541,0.823v4.856
				C351.357,207.72,350.966,208.118,350.482,208.118z"/>
		</g>
		<g>
			<path d="M351.529,208.578h-2.047c-0.483,0-0.875-0.397-0.875-0.89c0-0.491,0.392-0.89,0.875-0.89h2.047
				c0.483,0,0.875,0.398,0.875,0.89C352.404,208.181,352.013,208.578,351.529,208.578z"/>
		</g>
	</g>
	<g>
		<g>
			<g>
				<path d="M392.763,215.219c-4.952,0-8.981-4.029-8.981-8.981c0-4.953,4.029-8.982,8.981-8.982c0.489,0,0.886,0.396,0.886,0.886
					v7.211h7.211c0.489,0,0.886,0.396,0.886,0.886C401.745,211.189,397.716,215.219,392.763,215.219z M391.878,199.08
					c-3.561,0.438-6.325,3.48-6.325,7.157c0,3.976,3.234,7.21,7.21,7.21c3.677,0,6.719-2.765,7.157-6.325h-7.157
					c-0.488,0-0.885-0.396-0.885-0.885V199.08z"/>
			</g>
			<g>
				<path d="M403.896,204.086H395.8c-0.489,0-0.886-0.396-0.886-0.886v-8.096c0-0.489,0.396-0.886,0.886-0.886
					c4.952,0,8.981,4.029,8.981,8.981C404.781,203.689,404.385,204.086,403.896,204.086z M396.685,202.315h6.271
					c-0.402-3.27-3.002-5.869-6.271-6.271V202.315z"/>
			</g>
		</g>
	</g>
	<g>
		<g>
			<path d="M450.789,215.719h-6.013c-0.554,0-1.002-0.456-1.002-1.02v-5.1h-3.006v5.1c0,0.563-0.448,1.02-1.002,1.02h-6.013
				c-0.554,0-1.002-0.456-1.002-1.02v-9.188c0-0.563,0.448-1.021,1.002-1.021s1.002,0.457,1.002,1.021v8.167h4.009v-5.1
				c0-0.563,0.448-1.02,1.002-1.02h5.01c0.554,0,1.002,0.456,1.002,1.02v5.1h4.009v-8.167c0-0.563,0.448-1.021,1.002-1.021
				s1.002,0.457,1.002,1.021v9.188C451.791,215.263,451.343,215.719,450.789,215.719z"/>
		</g>
		<g>
			<g>
				<g>
					<path d="M450.538,203.043c-1.049,0-2.043-0.445-2.756-1.227c-0.712,0.781-1.708,1.227-2.755,1.227
						c-1.049,0-2.044-0.445-2.756-1.227c-0.712,0.781-1.709,1.227-2.756,1.227c-1.049,0-2.043-0.445-2.755-1.227
						c-0.713,0.781-1.709,1.227-2.756,1.227c-1.838,0-3.435-1.392-3.715-3.238c-0.082-0.542,0.096-1.126,0.487-1.602l3.386-4.12
						c0.192-0.23,0.472-0.364,0.77-0.364h14.66c0.296,0,0.575,0.132,0.768,0.364l3.401,4.118c0.394,0.476,0.571,1.06,0.489,1.602
						C453.973,201.651,452.376,203.043,450.538,203.043z M447.782,198.199c0.553,0,1.003,0.456,1.003,1.02
						c0,0.984,0.786,1.785,1.753,1.785c0.595,0,1.144-0.305,1.47-0.813c0.2-0.312,0.167-0.74-0.082-1.043l-2.801-3.389H435.4
						l-2.787,3.389c-0.247,0.301-0.28,0.729-0.08,1.041c0.324,0.511,0.875,0.815,1.472,0.815c0.967,0,1.753-0.801,1.753-1.785
						c0-0.563,0.45-1.02,1.003-1.02c0.552,0,1.002,0.456,1.002,1.02c0,0.984,0.786,1.785,1.753,1.785s1.754-0.801,1.754-1.785
						c0-0.563,0.45-1.02,1.002-1.02s1.002,0.456,1.002,1.02c0,0.984,0.787,1.785,1.754,1.785s1.753-0.801,1.753-1.785
						C446.78,198.655,447.23,198.199,447.782,198.199z"/>
				</g>
			</g>
		</g>
	</g>
	<g>
		<g>
			<path d="M58.245,260.723c-0.192,0-0.384-0.073-0.53-0.22l-2-1.999c-0.293-0.293-0.293-0.768,0-1.061
				c0.293-0.292,0.768-0.292,1.061,0l1.47,1.47l1.47-1.47c0.293-0.292,0.768-0.292,1.061,0c0.293,0.293,0.293,0.768,0,1.061
				l-2,1.999C58.629,260.649,58.437,260.723,58.245,260.723z"/>
		</g>
		<g>
			<path d="M58.266,260.709c-0.414,0-0.75-0.336-0.75-0.75v-6.493c0-0.414,0.336-0.749,0.75-0.749s0.75,0.335,0.75,0.749v6.493
				C59.016,260.373,58.68,260.709,58.266,260.709z"/>
		</g>
	</g>
	<g>
		<g>
			<g>
				<path d="M55.281,254.715h-7.537c-1.103,0-2-0.897-2-1.999v-11.994c0-1.102,0.897-1.999,2-1.999h17c0.552,0,1,0.447,1,1
					c0,0.552-0.448,0.999-1,0.999h-17v11.994h7.537c0.552,0,1,0.446,1,0.999S55.833,254.715,55.281,254.715z"/>
			</g>
			<g>
				<path d="M68.744,254.715h-7.463c-0.552,0-1-0.447-1-1s0.448-0.999,1-0.999h7.463v-2.999c0-0.553,0.448-1,1-1s1,0.447,1,1v2.999
					C70.744,253.817,69.847,254.715,68.744,254.715z"/>
			</g>
			<g>
				<ellipse cx="58.244" cy="246.718" rx="3" ry="4.498"/>
			</g>
		</g>
		<g>
			<path d="M69.744,253.715c-0.552,0-1-0.447-1-0.999v-11.994h-21v2.998c0,0.552-0.448,0.999-1,0.999s-1-0.447-1-0.999v-2.998
				c0-1.102,0.897-1.999,2-1.999h21c1.103,0,2,0.897,2,1.999v11.994C70.744,253.268,70.296,253.715,69.744,253.715z"/>
		</g>
	</g>
	<path d="M21.244,238.702H-0.754c-1.104,0-2.001,0.894-2.001,1.991v14.122c0,1.098,0.897,1.991,2.001,1.991h9.999v1.904H3.273
		c-0.553,0-1,0.445-1,0.995c0,0.551,0.448,0.996,1,0.996h14.011c0.553,0,1-0.445,1-0.996c0-0.55-0.448-0.995-1-0.995h-6.039v-1.904
		h9.999c1.104,0,2.001-0.894,2.001-1.991v-14.122C23.245,239.596,22.348,238.702,21.244,238.702z M-0.754,254.815v-14.122h21.999
		l0.001,14.122H-0.754z"/>
	<path d="M119.261,253.666c0.003-0.034,0.02-0.063,0.02-0.099v-0.009c0-0.001,0-0.002,0-0.003v-11.859c0-1.09-0.897-1.979-2-1.979
		h-22c-1.103,0-2,0.889-2,1.979v11.86c0,0,0,0,0,0.001v0.01c0,0.038,0.018,0.071,0.022,0.108c0.011,0.09,0.02,0.181,0.054,0.264
		c0.026,0.063,0.071,0.113,0.108,0.169c0.034,0.05,0.058,0.104,0.101,0.147c0.066,0.067,0.148,0.114,0.231,0.161
		c0.03,0.017,0.051,0.044,0.084,0.058l0.009,0.004c0,0,0,0,0.001,0.001l11.984,5.156c0.005,0.002,0.01,0.001,0.015,0.003
		c0.118,0.047,0.24,0.079,0.369,0.079c0.002,0,0.005-0.002,0.007-0.002s0.005,0.002,0.007,0.002c0.128,0,0.251-0.032,0.369-0.079
		c0.004-0.002,0.01-0.001,0.014-0.003l12.01-5.156c0.001-0.001,0.003-0.001,0.005-0.002l0.006-0.003
		c0.025-0.011,0.041-0.032,0.065-0.045c0.091-0.048,0.18-0.101,0.251-0.173c0.042-0.044,0.067-0.099,0.101-0.148
		c0.038-0.056,0.083-0.105,0.109-0.169C119.241,253.854,119.251,253.76,119.261,253.666z M117.281,241.696v11.223l-11.013,4.729
		l-10.987-4.729v-11.223H117.281z"/>
	<g>
		<path d="M154.232,260.718c-6.065,0-11-4.935-11-11s4.935-11,11-11s11,4.935,11,11S160.298,260.718,154.232,260.718z
			 M154.232,240.718c-4.962,0-9,4.037-9,9s4.038,9,9,9s9-4.037,9-9S159.195,240.718,154.232,240.718z"/>
	</g>
	<g>
		<path d="M154.232,253.517c-0.256,0-0.512-0.098-0.707-0.293c-0.391-0.391-0.391-1.023,0-1.414l4.701-4.7
			c0.391-0.391,1.023-0.391,1.414,0s0.391,1.023,0,1.414l-4.701,4.7C154.744,253.419,154.488,253.517,154.232,253.517z"/>
	</g>
	<g>
		<path d="M154.232,253.517c-0.256,0-0.512-0.098-0.707-0.293l-4.701-4.7c-0.391-0.391-0.391-1.023,0-1.414s1.023-0.391,1.414,0
			l4.701,4.7c0.391,0.391,0.391,1.023,0,1.414C154.744,253.419,154.488,253.517,154.232,253.517z"/>
	</g>
	<path d="M447.973,246.524c-0.411-0.408-1.077-0.408-1.488,0l-4.203,4.172l-4.203-4.172c-0.411-0.408-1.077-0.408-1.488,0
		s-0.411,1.069,0,1.478l4.947,4.91c0.206,0.204,0.475,0.306,0.744,0.306s0.538-0.102,0.744-0.306l4.947-4.91
		C448.384,247.594,448.384,246.933,447.973,246.524z"/>
	<g>
		<path fill="none" d="M202.297,243.854c-1.584,0-2.873,1.296-2.873,2.889v0.937h5.746v-0.937
			C205.17,245.15,203.881,243.854,202.297,243.854z"/>
		<path d="M202.297,241.718c-2.756,0-4.998,2.255-4.998,5.025v0.937h-0.005v8.646c0,0.77,0.62,1.393,1.385,1.393h7.214
			c0.764,0,1.384-0.623,1.384-1.393v-6.979h0.018v-2.603C207.294,243.973,205.053,241.718,202.297,241.718z M202.286,253.888
			c-0.653,0-1.183-0.531-1.183-1.189c0-0.656,0.53-1.188,1.183-1.188s1.183,0.532,1.183,1.188
			C203.469,253.356,202.939,253.888,202.286,253.888z M205.17,247.68h-5.746v-0.937c0-1.593,1.289-2.889,2.873-2.889
			s2.873,1.296,2.873,2.889V247.68z"/>
	</g>
	<path d="M252.402,249.717l8.939-8.939c0.586-0.586,0.586-1.535,0-2.121s-1.535-0.586-2.121,0l-8.939,8.939l-8.939-8.939
		c-0.586-0.586-1.535-0.586-2.121,0s-0.586,1.535,0,2.121l8.939,8.939l-8.939,8.939c-0.586,0.586-0.586,1.535,0,2.121
		c0.293,0.293,0.677,0.439,1.061,0.439s0.768-0.146,1.061-0.439l8.939-8.939l8.939,8.939c0.293,0.293,0.677,0.439,1.061,0.439
		s0.768-0.146,1.061-0.439c0.586-0.586,0.586-1.535,0-2.121L252.402,249.717z"/>
	<g>
		<path d="M298.283,262.716c-3.474,0-6.739-1.352-9.194-3.807s-3.809-5.72-3.807-9.192c0-7.169,5.831-13.001,12.999-13.001
			c7.169,0,13,5.832,13,13.001C311.281,256.885,305.451,262.716,298.283,262.716z M298.281,238.735
			c-6.055,0-10.98,4.927-10.98,10.981c0,2.934,1.143,5.69,3.216,7.765c2.074,2.073,4.831,3.216,7.765,3.216h0.002
			c6.054,0,10.979-4.926,10.979-10.98S304.336,238.735,298.281,238.735z"/>
	</g>
	<path d="M299.709,249.717l4.033-4.032c0.395-0.395,0.395-1.033,0-1.428s-1.033-0.395-1.428,0l-4.033,4.032l-4.033-4.032
		c-0.395-0.395-1.033-0.395-1.428,0s-0.395,1.033,0,1.428l4.033,4.032l-4.033,4.031c-0.395,0.395-0.395,1.033,0,1.428
		c0.197,0.197,0.456,0.296,0.714,0.296c0.259,0,0.517-0.099,0.714-0.296l4.033-4.031l4.033,4.031
		c0.197,0.197,0.455,0.296,0.714,0.296c0.258,0,0.517-0.099,0.714-0.296c0.395-0.395,0.395-1.033,0-1.428L299.709,249.717z"/>
	<g>
		<path d="M346.281,262.717c-3.473,0-6.736-1.352-9.191-3.808s-3.808-5.721-3.808-9.192c0-3.473,1.353-6.736,3.808-9.192
			s5.719-3.808,9.191-3.808c3.472,0,6.736,1.352,9.191,3.808c2.456,2.456,3.81,5.721,3.81,9.192s-1.354,6.736-3.81,9.192
			C353.018,261.365,349.753,262.717,346.281,262.717z M346.281,238.736c-2.934,0-5.69,1.142-7.764,3.217
			c-2.073,2.073-3.217,4.83-3.217,7.764c0,2.933,1.144,5.689,3.217,7.764c2.073,2.075,4.83,3.217,7.764,3.217
			c2.933,0,5.689-1.142,7.764-3.217c2.074-2.074,3.218-4.831,3.218-7.764s-1.144-5.689-3.218-7.764
			C351.971,239.878,349.214,238.736,346.281,238.736z"/>
	</g>
	<path d="M352.993,248.706l-6.712,0.001l-6.712,0.001c-0.558,0-1.01,0.453-1.01,1.01c0,0.559,0.453,1.01,1.01,1.01l6.712-0.001
		l6.712-0.001c0.558,0,1.01-0.453,1.01-1.01C354.003,249.157,353.55,248.706,352.993,248.706z"/>
	<g>
		<g>
			<path d="M394.281,262.716c-3.473,0-6.736-1.352-9.191-3.808s-3.809-5.721-3.809-9.192c0-3.473,1.354-6.736,3.809-9.192
				s5.719-3.808,9.191-3.808c3.472,0,6.736,1.352,9.191,3.808c2.456,2.456,3.809,5.721,3.809,9.192s-1.353,6.736-3.809,9.192
				C401.018,261.364,397.753,262.716,394.281,262.716z M394.281,238.735c-2.934,0-5.69,1.142-7.764,3.217
				c-2.073,2.073-3.217,4.83-3.217,7.764c0,2.933,1.144,5.689,3.217,7.764c2.073,2.075,4.83,3.217,7.764,3.217
				c2.933,0,5.689-1.142,7.764-3.217c2.074-2.074,3.218-4.831,3.218-7.764s-1.144-5.689-3.218-7.764
				C399.971,239.877,397.214,238.735,394.281,238.735z"/>
		</g>
		<path d="M400.993,248.705l-5.702,0.001l0.001-5.702c0-0.558-0.452-1.01-1.01-1.01c-0.557,0-1.01,0.451-1.01,1.01l-0.001,5.702
			l-5.702,0.001c-0.558,0-1.01,0.453-1.01,1.01c0,0.559,0.453,1.01,1.01,1.01l5.702-0.001l-0.001,5.702
			c0,0.558,0.452,1.01,1.01,1.01c0.557,0,1.01-0.451,1.01-1.01l0.001-5.702l5.702-0.001c0.558,0,1.01-0.453,1.01-1.01
			C402.003,249.156,401.55,248.705,400.993,248.705z"/>
	</g>
	<g>
		<circle fill="#D83F4D" cx="10.198" cy="296.177" r="12"/>
		<g>
			<polygon fill="#FFFFFF" points="8.939,300.728 7.582,299.37 10.775,296.177 7.582,292.983 8.939,291.626 13.49,296.177 			"/>
		</g>
	</g>
	<g>
		<circle fill="#007CBE" cx="58.448" cy="296.177" r="12"/>
		<g>
			<polygon fill="#FFFFFF" points="57.189,300.728 55.832,299.37 59.025,296.177 55.832,292.983 57.189,291.626 61.74,296.177 			
				"/>
		</g>
	</g>
	<g>
		<path fill="#007CBE" d="M105.673,309.153c-3.472,0-6.736-1.352-9.191-3.808c-2.456-2.456-3.808-5.721-3.808-9.192
			c0-3.473,1.352-6.736,3.808-9.192c2.455-2.456,5.72-3.808,9.191-3.808c3.472,0,6.737,1.352,9.192,3.808
			c2.456,2.456,3.809,5.721,3.809,9.192s-1.353,6.736-3.809,9.192C112.41,307.802,109.146,309.153,105.673,309.153z
			 M105.673,285.173c-2.933,0-5.689,1.142-7.764,3.217c-2.074,2.073-3.216,4.83-3.216,7.764c0,2.933,1.142,5.689,3.216,7.764
			c2.074,2.075,4.831,3.217,7.764,3.217s5.69-1.142,7.765-3.217c2.075-2.074,3.217-4.831,3.217-7.764s-1.142-5.689-3.217-7.764
			C111.364,286.314,108.606,285.173,105.673,285.173z"/>
	</g>
	<g>
		<path fill="#007CBE" d="M154.197,309.177c-3.472,0-6.736-1.352-9.191-3.808c-2.456-2.456-3.808-5.721-3.808-9.192
			c0-3.473,1.352-6.736,3.808-9.192c2.455-2.456,5.72-3.808,9.191-3.808c3.472,0,6.737,1.352,9.192,3.808
			c2.456,2.456,3.809,5.721,3.809,9.192s-1.353,6.736-3.809,9.192C160.934,307.825,157.669,309.177,154.197,309.177z
			 M154.197,285.196c-2.933,0-5.689,1.142-7.764,3.217c-2.074,2.073-3.216,4.83-3.216,7.764c0,2.933,1.142,5.689,3.216,7.764
			c2.074,2.075,4.831,3.217,7.764,3.217s5.69-1.142,7.765-3.217c2.075-2.074,3.217-4.831,3.217-7.764s-1.142-5.689-3.217-7.764
			C159.887,286.338,157.129,285.196,154.197,285.196z"/>
	</g>
	<circle fill="#007CBE" cx="154.198" cy="296.178" r="8.457"/>
</g>
<g id="Grid" display="none">
	<g display="inline">
		<g>
		</g>
	</g>
	<g display="inline">
		<g>
		</g>
	</g>
	<g display="inline">
		<g>
		</g>
	</g>
	<g display="inline">
		<g>
		</g>
	</g>
	<g display="inline">
		<g>
		</g>
	</g>
	<g display="inline">
		<g>
		</g>
	</g>
	<g display="inline">
		<g>
		</g>
	</g>
	<g display="inline">
		<g>
		</g>
	</g>
	<g display="inline">
		<g>
		</g>
	</g>
	<g display="inline">
		<g>
		</g>
	</g>
</g>
</svg>
