<?xml version="1.0" encoding="utf-8"?>
<!-- Generator: Adobe Illustrator 16.0.4, SVG Export Plug-In . SVG Version: 6.00 Build 0)  -->
<!DOCTYPE svg PUBLIC "-//W3C//DTD SVG 1.1//EN" "http://www.w3.org/Graphics/SVG/1.1/DTD/svg11.dtd">
<svg version="1.1" id="Layer_1" xmlns="http://www.w3.org/2000/svg" xmlns:xlink="http://www.w3.org/1999/xlink" x="0px" y="0px"
	 width="404.98px" height="404.98px" viewBox="0 0 404.98 404.98" enable-background="new 0 0 404.98 404.98" xml:space="preserve">
<path fill="#FFFFFF" d="M360.468-0.609H44.525c-24.83,0-45.135,20.305-45.135,45.147v315.93c0,24.842,20.305,45.123,45.135,45.123
	h315.942c24.817,0,45.122-20.28,45.122-45.123V44.538C405.59,19.708,385.285-0.609,360.468-0.609z M202.131,327.122
	c69.034,0,124.966-55.981,124.966-124.979c0-7.636-0.967-15-2.317-22.214h35.688v162.849c0,8.628-7.004,15.57-15.645,15.57H60.169
	c-8.653,0-15.631-6.942-15.631-15.57V179.929h34.957c-1.364,7.214-2.355,14.578-2.355,22.214
	C77.127,271.165,133.121,327.122,202.131,327.122z M124.035,202.143c0-43.151,34.982-78.108,78.108-78.108
	c43.139,0,78.121,34.957,78.121,78.108c0,43.139-34.981,78.121-78.121,78.121C158.992,280.264,124.035,245.282,124.035,202.143z
	 M344.811,112.221h-36.432c-8.628,0-15.62-7.029-15.62-15.607V60.12c0-8.603,6.992-15.582,15.607-15.582h36.444
	c8.666,0,15.657,6.979,15.657,15.582v36.47C360.468,105.192,353.464,112.221,344.811,112.221z"/>
</svg>
