<?xml version="1.0" encoding="utf-8"?>
<!-- Generator: Adobe Illustrator 16.0.4, SVG Export Plug-In . SVG Version: 6.00 Build 0)  -->
<!DOCTYPE svg PUBLIC "-//W3C//DTD SVG 1.1//EN" "http://www.w3.org/Graphics/SVG/1.1/DTD/svg11.dtd">
<svg version="1.1" xmlns="http://www.w3.org/2000/svg" xmlns:xlink="http://www.w3.org/1999/xlink" x="0px" y="0px" width="19px"
	 height="19px" viewBox="0 0 19 19" enable-background="new 0 0 19 19" xml:space="preserve" fill="#0c2074">
<g id="Icons">
	<g>
		<g>
			<g>
				<path d="M7.158,14.316C3.212,14.316,0,11.105,0,7.158S3.212,0,7.158,0s7.158,3.211,7.158,7.158S11.104,14.316,7.158,14.316z
					 M7.158,2.045c-2.819,0-5.113,2.293-5.113,5.113s2.294,5.113,5.113,5.113s5.113-2.293,5.113-5.113S9.978,2.045,7.158,2.045z"/>
			</g>
			<g>
				<path d="M17.978,19c-0.262,0-0.523-0.1-0.724-0.3l-6.387-6.387c-0.399-0.399-0.399-1.046,0-1.446s1.047-0.399,1.446,0
					l6.387,6.387c0.399,0.399,0.399,1.046,0,1.446C18.501,18.9,18.239,19,17.978,19z"/>
			</g>
		</g>
	</g>
</g>
<g id="Grid" display="none">
</g>
</svg>
