<?xml version="1.0" encoding="utf-8"?>
<!-- Generator: Adobe Illustrator 16.0.4, SVG Export Plug-In . SVG Version: 6.00 Build 0)  -->
<!DOCTYPE svg PUBLIC "-//W3C//DTD SVG 1.1//EN" "http://www.w3.org/Graphics/SVG/1.1/DTD/svg11.dtd">
<svg version="1.1" xmlns="http://www.w3.org/2000/svg" xmlns:xlink="http://www.w3.org/1999/xlink" x="0px" y="0px" width="26px"
	 height="20px" viewBox="0 0 26 20" enable-background="new 0 0 26 20" xml:space="preserve">
<g id="Icons">
	<path fill="#0C2074" d="M25.98,13.948C25.983,13.914,26,13.885,26,13.85v-0.009c0-0.001,0-0.002,0-0.003V1.979C26,0.889,25.103,0,24,0H2
		C0.897,0,0,0.889,0,1.979v11.86c0,0,0,0,0,0.001v0.01c0,0.038,0.018,0.071,0.022,0.108c0.011,0.09,0.02,0.181,0.054,0.264
		c0.026,0.063,0.071,0.113,0.108,0.169c0.034,0.05,0.058,0.104,0.101,0.147c0.066,0.067,0.148,0.114,0.231,0.161
		c0.03,0.017,0.051,0.044,0.084,0.058l0.009,0.004c0,0,0,0,0.001,0.001l11.984,5.156c0.005,0.002,0.01,0.001,0.015,0.003
		C12.728,19.968,12.851,20,12.979,20c0.002,0,0.005-0.002,0.007-0.002S12.991,20,12.994,20c0.128,0,0.251-0.032,0.369-0.079
		c0.004-0.002,0.01-0.001,0.014-0.003l12.01-5.156c0.001-0.001,0.003-0.001,0.005-0.002l0.006-0.003
		c0.025-0.011,0.041-0.032,0.065-0.045c0.091-0.048,0.18-0.101,0.251-0.173c0.042-0.044,0.067-0.099,0.101-0.148
		c0.038-0.056,0.083-0.105,0.109-0.169C25.96,14.136,25.97,14.042,25.98,13.948z M24,1.979v11.223L12.987,17.93L2,13.201V1.979H24z"
		/>
</g>
<g id="Grid" display="none">
</g>
</svg>
