<?xml version="1.0" encoding="utf-8"?>
<!-- Generator: Adobe Illustrator 16.0.4, SVG Export Plug-In . SVG Version: 6.00 Build 0)  -->
<!DOCTYPE svg PUBLIC "-//W3C//DTD SVG 1.1//EN" "http://www.w3.org/Graphics/SVG/1.1/DTD/svg11.dtd">
<svg version="1.1" id="Layer_1" xmlns="http://www.w3.org/2000/svg" xmlns:xlink="http://www.w3.org/1999/xlink" x="0px" y="0px"
	 width="404.98px" height="404.98px" viewBox="0 0 404.98 404.98" enable-background="new 0 0 404.98 404.98" xml:space="preserve">
<path id="White_2_" fill="#FFFFFF" d="M383.017-0.438H21.961c-12.373,0-22.398,10.027-22.398,22.4v361.056
	c0,12.37,10.027,22.4,22.398,22.4h194.38V248.25h-52.89v-61.251h52.89v-45.171c0-52.422,32.017-80.966,78.78-80.966
	c22.4,0,41.652,1.667,47.263,2.413v54.782l-32.434,0.016c-25.432,0-30.356,12.083-30.356,29.818v39.108h60.654l-7.897,61.251
	h-52.755v157.168h103.422c12.371,0,22.4-10.03,22.4-22.4V21.962C405.416,9.588,395.387-0.438,383.017-0.438z"/>
</svg>
