<?xml version="1.0" encoding="utf-8"?>
<!-- Generator: Adobe Illustrator 16.0.4, SVG Export Plug-In . SVG Version: 6.00 Build 0)  -->
<!DOCTYPE svg PUBLIC "-//W3C//DTD SVG 1.1//EN" "http://www.w3.org/Graphics/SVG/1.1/DTD/svg11.dtd">
<svg version="1.1" xmlns="http://www.w3.org/2000/svg" xmlns:xlink="http://www.w3.org/1999/xlink" x="0px" y="0px" width="24px"
	 height="23px" viewBox="0 0 24 23" enable-background="new 0 0 24 23" xml:space="preserve" fill="#0c2074">
<g id="Icons">
	<g>
		<g>
			<path d="M22.989,9.317c-0.19,0-0.383-0.054-0.554-0.167L11.99,2.198L1.545,9.149C1.084,9.455,0.464,9.331,0.158,8.873
				c-0.307-0.459-0.183-1.079,0.277-1.384l11-7.321c0.336-0.223,0.773-0.223,1.109,0l11,7.321c0.46,0.306,0.584,0.925,0.277,1.384
				C23.63,9.161,23.312,9.317,22.989,9.317z"/>
		</g>
		<g>
			<circle cx="11.99" cy="6.987" r="1"/>
		</g>
		<g>
			<g>
				<path d="M3.49,17.968v-5.989c0-0.551,0.448-0.998,1-0.998l0,0c0.553,0,1,0.447,1,0.998v5.989c0,0.551-0.447,0.999-1,0.999l0,0
					C3.938,18.966,3.49,18.519,3.49,17.968z"/>
			</g>
			<g>
				<path d="M8.49,17.968v-5.989c0-0.551,0.448-0.998,1-0.998l0,0c0.553,0,1,0.447,1,0.998v5.989c0,0.551-0.447,0.999-1,0.999l0,0
					C8.938,18.966,8.49,18.519,8.49,17.968z"/>
			</g>
			<g>
				<path d="M18.49,17.968v-5.989c0-0.551,0.448-0.998,1-0.998l0,0c0.553,0,1,0.447,1,0.998v5.989c0,0.551-0.447,0.999-1,0.999l0,0
					C18.938,18.966,18.49,18.519,18.49,17.968z"/>
			</g>
			<g>
				<path d="M13.49,17.968v-5.989c0-0.551,0.448-0.998,1-0.998l0,0c0.553,0,1,0.447,1,0.998v5.989c0,0.551-0.447,0.999-1,0.999l0,0
					C13.938,18.966,13.49,18.519,13.49,17.968z"/>
			</g>
		</g>
		<g>
			<path d="M22.01,23h-20c-0.553,0-1-0.447-1-0.998l0,0c0-0.552,0.447-0.999,1-0.999h20c0.553,0,1,0.447,1,0.999l0,0
				C23.01,22.553,22.562,23,22.01,23z"/>
		</g>
	</g>
</g>
<g id="Grid" display="none">
</g>
</svg>
